<?xml version="1.0" encoding="utf-8"?>
<svg xmlns:xlink="http://www.w3.org/1999/xlink" xmlns="http://www.w3.org/2000/svg" class="pygal-chart" id="chart-1c3cb4ec-6c10-4485-aa6a-ce3806d09ce8" viewBox="0 0 400 250">
  <!--Generated with pygal 1.7.0 (etree) ©Kozea 2011-2014 on 2015-07-12-->
  <!--http://pygal.org-->
  <!--http://github.com/Kozea/pygal-->
  <defs>
    <style type="text/css">#chart-1c3cb4ec-6c10-4485-aa6a-ce3806d09ce8 .title{font-family:"monospace";font-size:16px}#chart-1c3cb4ec-6c10-4485-aa6a-ce3806d09ce8 .legends .legend text{font-family:"monospace";font-size:14px}#chart-1c3cb4ec-6c10-4485-aa6a-ce3806d09ce8 .axis text{font-family:"monospace";font-size:8px}#chart-1c3cb4ec-6c10-4485-aa6a-ce3806d09ce8 .axis text.major{font-family:"monospace";font-size:8px}#chart-1c3cb4ec-6c10-4485-aa6a-ce3806d09ce8 .series text{font-family:"monospace";font-size:8px}#chart-1c3cb4ec-6c10-4485-aa6a-ce3806d09ce8 .tooltip text{font-family:"monospace";font-size:16px}#chart-1c3cb4ec-6c10-4485-aa6a-ce3806d09ce8 text.no_data{font-size:64px}
#chart-1c3cb4ec-6c10-4485-aa6a-ce3806d09ce8{background-color:white}#chart-1c3cb4ec-6c10-4485-aa6a-ce3806d09ce8 path,#chart-1c3cb4ec-6c10-4485-aa6a-ce3806d09ce8 line,#chart-1c3cb4ec-6c10-4485-aa6a-ce3806d09ce8 rect,#chart-1c3cb4ec-6c10-4485-aa6a-ce3806d09ce8 circle{-webkit-transition:250ms;-moz-transition:250ms;transition:250ms}#chart-1c3cb4ec-6c10-4485-aa6a-ce3806d09ce8 .graph &gt; .background{fill:white}#chart-1c3cb4ec-6c10-4485-aa6a-ce3806d09ce8 .plot &gt; .background{fill:rgba(0,0,255,0.1)}#chart-1c3cb4ec-6c10-4485-aa6a-ce3806d09ce8 .graph{fill:rgba(0,0,0,0.7)}#chart-1c3cb4ec-6c10-4485-aa6a-ce3806d09ce8 text.no_data{fill:rgba(0,0,0,0.9)}#chart-1c3cb4ec-6c10-4485-aa6a-ce3806d09ce8 .title{fill:rgba(0,0,0,0.9)}#chart-1c3cb4ec-6c10-4485-aa6a-ce3806d09ce8 .legends .legend text{fill:rgba(0,0,0,0.7)}#chart-1c3cb4ec-6c10-4485-aa6a-ce3806d09ce8 .legends .legend:hover text{fill:rgba(0,0,0,0.9)}#chart-1c3cb4ec-6c10-4485-aa6a-ce3806d09ce8 .axis .line{stroke:rgba(0,0,0,0.9)}#chart-1c3cb4ec-6c10-4485-aa6a-ce3806d09ce8 .axis .guide.line{stroke:rgba(0,0,0,0.5)}#chart-1c3cb4ec-6c10-4485-aa6a-ce3806d09ce8 .axis .major.line{stroke:rgba(0,0,0,0.7)}#chart-1c3cb4ec-6c10-4485-aa6a-ce3806d09ce8 .axis text.major{stroke:rgba(0,0,0,0.9);fill:rgba(0,0,0,0.9)}#chart-1c3cb4ec-6c10-4485-aa6a-ce3806d09ce8 .axis.y .guides:hover .guide.line,#chart-1c3cb4ec-6c10-4485-aa6a-ce3806d09ce8 .line-graph .axis.x .guides:hover .guide.line,#chart-1c3cb4ec-6c10-4485-aa6a-ce3806d09ce8 .stackedline-graph .axis.x .guides:hover .guide.line,#chart-1c3cb4ec-6c10-4485-aa6a-ce3806d09ce8 .xy-graph .axis.x .guides:hover .guide.line{stroke:rgba(0,0,0,0.9)}#chart-1c3cb4ec-6c10-4485-aa6a-ce3806d09ce8 .axis .guides:hover text{fill:rgba(0,0,0,0.9)}#chart-1c3cb4ec-6c10-4485-aa6a-ce3806d09ce8 .reactive{fill-opacity:.8}#chart-1c3cb4ec-6c10-4485-aa6a-ce3806d09ce8 .reactive.active,#chart-1c3cb4ec-6c10-4485-aa6a-ce3806d09ce8 .active .reactive{fill-opacity:.9}#chart-1c3cb4ec-6c10-4485-aa6a-ce3806d09ce8 .series{stroke-width:1.0;stroke-linejoin:round;stroke-linecap:round;stroke-dasharray:0,0}#chart-1c3cb4ec-6c10-4485-aa6a-ce3806d09ce8 .series text{fill:rgba(0,0,0,0.9)}#chart-1c3cb4ec-6c10-4485-aa6a-ce3806d09ce8 .tooltip rect{fill:rgba(0,0,255,0.1);stroke:rgba(0,0,0,0.9)}#chart-1c3cb4ec-6c10-4485-aa6a-ce3806d09ce8 .tooltip text{fill:rgba(0,0,0,0.9)}#chart-1c3cb4ec-6c10-4485-aa6a-ce3806d09ce8 .map-element{fill:rgba(0,0,0,0.7);stroke:rgba(0,0,0,0.5) !important;opacity:.9;stroke-width:3;-webkit-transition:250ms;-moz-transition:250ms;-o-transition:250ms;transition:250ms}#chart-1c3cb4ec-6c10-4485-aa6a-ce3806d09ce8 .map-element:hover{opacity:1;stroke-width:10}#chart-1c3cb4ec-6c10-4485-aa6a-ce3806d09ce8 .color-0,#chart-1c3cb4ec-6c10-4485-aa6a-ce3806d09ce8 .color-0 a:visited{stroke:#242424;fill:#242424}#chart-1c3cb4ec-6c10-4485-aa6a-ce3806d09ce8 .color-1,#chart-1c3cb4ec-6c10-4485-aa6a-ce3806d09ce8 .color-1 a:visited{stroke:#9f6767;fill:#9f6767}#chart-1c3cb4ec-6c10-4485-aa6a-ce3806d09ce8 .color-2,#chart-1c3cb4ec-6c10-4485-aa6a-ce3806d09ce8 .color-2 a:visited{stroke:#92ac68;fill:#92ac68}#chart-1c3cb4ec-6c10-4485-aa6a-ce3806d09ce8 .color-3,#chart-1c3cb4ec-6c10-4485-aa6a-ce3806d09ce8 .color-3 a:visited{stroke:#d0d293;fill:#d0d293}#chart-1c3cb4ec-6c10-4485-aa6a-ce3806d09ce8 .color-4,#chart-1c3cb4ec-6c10-4485-aa6a-ce3806d09ce8 .color-4 a:visited{stroke:#9aacc3;fill:#9aacc3}#chart-1c3cb4ec-6c10-4485-aa6a-ce3806d09ce8 .color-5,#chart-1c3cb4ec-6c10-4485-aa6a-ce3806d09ce8 .color-5 a:visited{stroke:#bb77a4;fill:#bb77a4}#chart-1c3cb4ec-6c10-4485-aa6a-ce3806d09ce8 .color-6,#chart-1c3cb4ec-6c10-4485-aa6a-ce3806d09ce8 .color-6 a:visited{stroke:#77bbb5;fill:#77bbb5}#chart-1c3cb4ec-6c10-4485-aa6a-ce3806d09ce8 .color-7,#chart-1c3cb4ec-6c10-4485-aa6a-ce3806d09ce8 .color-7 a:visited{stroke:#777777;fill:#777777}#chart-1c3cb4ec-6c10-4485-aa6a-ce3806d09ce8 .color-8,#chart-1c3cb4ec-6c10-4485-aa6a-ce3806d09ce8 .color-8 a:visited{stroke:#242424;fill:#242424}#chart-1c3cb4ec-6c10-4485-aa6a-ce3806d09ce8 .color-9,#chart-1c3cb4ec-6c10-4485-aa6a-ce3806d09ce8 .color-9 a:visited{stroke:#9f6767;fill:#9f6767}#chart-1c3cb4ec-6c10-4485-aa6a-ce3806d09ce8 .color-10,#chart-1c3cb4ec-6c10-4485-aa6a-ce3806d09ce8 .color-10 a:visited{stroke:#92ac68;fill:#92ac68}#chart-1c3cb4ec-6c10-4485-aa6a-ce3806d09ce8 .color-11,#chart-1c3cb4ec-6c10-4485-aa6a-ce3806d09ce8 .color-11 a:visited{stroke:#d0d293;fill:#d0d293}#chart-1c3cb4ec-6c10-4485-aa6a-ce3806d09ce8 .color-12,#chart-1c3cb4ec-6c10-4485-aa6a-ce3806d09ce8 .color-12 a:visited{stroke:#9aacc3;fill:#9aacc3}#chart-1c3cb4ec-6c10-4485-aa6a-ce3806d09ce8 .color-13,#chart-1c3cb4ec-6c10-4485-aa6a-ce3806d09ce8 .color-13 a:visited{stroke:#bb77a4;fill:#bb77a4}#chart-1c3cb4ec-6c10-4485-aa6a-ce3806d09ce8 .color-14,#chart-1c3cb4ec-6c10-4485-aa6a-ce3806d09ce8 .color-14 a:visited{stroke:#77bbb5;fill:#77bbb5}#chart-1c3cb4ec-6c10-4485-aa6a-ce3806d09ce8 .color-15,#chart-1c3cb4ec-6c10-4485-aa6a-ce3806d09ce8 .color-15 a:visited{stroke:#777777;fill:#777777}
#chart-1c3cb4ec-6c10-4485-aa6a-ce3806d09ce8 text.no_data{text-anchor:middle}#chart-1c3cb4ec-6c10-4485-aa6a-ce3806d09ce8 .guide.line{fill-opacity:0}#chart-1c3cb4ec-6c10-4485-aa6a-ce3806d09ce8 .centered{text-anchor:middle}#chart-1c3cb4ec-6c10-4485-aa6a-ce3806d09ce8 .title{text-anchor:middle}#chart-1c3cb4ec-6c10-4485-aa6a-ce3806d09ce8 .legends .legend text{fill-opacity:1}#chart-1c3cb4ec-6c10-4485-aa6a-ce3806d09ce8 .axis.x text{text-anchor:middle}#chart-1c3cb4ec-6c10-4485-aa6a-ce3806d09ce8 .axis.x:not(.web) text[transform]{text-anchor:start}#chart-1c3cb4ec-6c10-4485-aa6a-ce3806d09ce8 .axis.y text{text-anchor:end}#chart-1c3cb4ec-6c10-4485-aa6a-ce3806d09ce8 .axis.y2 text{text-anchor:start}#chart-1c3cb4ec-6c10-4485-aa6a-ce3806d09ce8 .axis.y .logarithmic text:not(.major),#chart-1c3cb4ec-6c10-4485-aa6a-ce3806d09ce8 .axis.y2 .logarithmic text:not(.major){font-size:50%}#chart-1c3cb4ec-6c10-4485-aa6a-ce3806d09ce8 .axis .guide.line{stroke-dasharray:4,4}#chart-1c3cb4ec-6c10-4485-aa6a-ce3806d09ce8 .axis .major.guide.line{stroke-dasharray:6,6}#chart-1c3cb4ec-6c10-4485-aa6a-ce3806d09ce8 .axis text.major{stroke-width:0.5px}#chart-1c3cb4ec-6c10-4485-aa6a-ce3806d09ce8 .horizontal .axis.y .guide.line,#chart-1c3cb4ec-6c10-4485-aa6a-ce3806d09ce8 .horizontal .axis.y2 .guide.line,#chart-1c3cb4ec-6c10-4485-aa6a-ce3806d09ce8 .vertical .axis.x .guide.line{opacity:0}#chart-1c3cb4ec-6c10-4485-aa6a-ce3806d09ce8 .horizontal .axis.always_show .guide.line,#chart-1c3cb4ec-6c10-4485-aa6a-ce3806d09ce8 .vertical .axis.always_show .guide.line{opacity:1 !important}#chart-1c3cb4ec-6c10-4485-aa6a-ce3806d09ce8 .axis.y .guides:hover .guide.line,#chart-1c3cb4ec-6c10-4485-aa6a-ce3806d09ce8 .axis.y2 .guides:hover .guide.line,#chart-1c3cb4ec-6c10-4485-aa6a-ce3806d09ce8 .axis.x .guides:hover .guide.line{opacity:1}#chart-1c3cb4ec-6c10-4485-aa6a-ce3806d09ce8 .axis .guides:hover text{opacity:1}#chart-1c3cb4ec-6c10-4485-aa6a-ce3806d09ce8 .nofill{fill:none}#chart-1c3cb4ec-6c10-4485-aa6a-ce3806d09ce8 .subtle-fill{fill-opacity:.2}#chart-1c3cb4ec-6c10-4485-aa6a-ce3806d09ce8 .dot{stroke-width:1px;fill-opacity:1}#chart-1c3cb4ec-6c10-4485-aa6a-ce3806d09ce8 .dot.active{stroke-width:5px}#chart-1c3cb4ec-6c10-4485-aa6a-ce3806d09ce8 .series text{stroke:none}#chart-1c3cb4ec-6c10-4485-aa6a-ce3806d09ce8 .series text.active{opacity:1}#chart-1c3cb4ec-6c10-4485-aa6a-ce3806d09ce8 .tooltip rect{fill-opacity:0.8}#chart-1c3cb4ec-6c10-4485-aa6a-ce3806d09ce8 .tooltip text{fill-opacity:1}#chart-1c3cb4ec-6c10-4485-aa6a-ce3806d09ce8 .tooltip text tspan.label{fill-opacity:.8}</style>
    <script type="text/javascript">window.config = {"inner_radius": 0, "print_values": false, "tooltip_font_size": 16, "xrange": null, "legend_at_bottom_columns": null, "height": 250, "legend_at_bottom": true, "show_legend": true, "show_dots": false, "explicit_size": false, "legend_font_size": 14, "y_labels_major": null, "show_minor_x_labels": true, "major_label_font_size": 8, "fill": true, "half_pie": false, "x_value_formatter": null, "style": {"opacity": ".8", "foreground": "rgba(0, 0, 0, 0.7)", "plot_background": "rgba(0, 0, 255, 0.1)", "stroke_style": "round", "foreground_light": "rgba(0, 0, 0, 0.9)", "transition": "250ms", "foreground_dark": "rgba(0, 0, 0, 0.5)", "stroke_dasharray": "0,0", "opacity_hover": ".9", "stroke_width": 1.0, "colors": ["#242424", "#9f6767", "#92ac68", "#d0d293", "#9aacc3", "#bb77a4", "#77bbb5", "#777777"], "background": "white", "font_family": "monospace"}, "x_label_rotation": 0, "missing_value_fill_truncation": "x", "zero": 0, "margin_right": null, "interpolation_parameters": {}, "x_labels_major": null, "rounded_bars": null, "label_font_size": 8, "show_y_labels": true, "dots_size": 2.5, "show_y_guides": true, "show_minor_y_labels": true, "x_labels": [], "y_title": null, "value_font_size": 8, "order_min": null, "disable_xml_declaration": false, "strict": false, "css": ["style.css", "graph.css"], "mode": null, "show_only_major_dots": false, "y_label_rotation": 0, "human_readable": false, "show_x_guides": false, "spacing": 10, "x_labels_major_count": null, "pretty_print": false, "tooltip_border_radius": 0, "interpolate": null, "js": ["https://tickets.events.ccc.de/media/js/svg.jquery.js", "https://tickets.events.ccc.de/media/js/pygal-tooltips.js"], "y_labels": null, "y_labels_major_every": null, "x_label_format": "%Y-%m-%d %H:%M:%S.%f", "interpolation_precision": 250, "x_title": null, "value_formatter": null, "no_data_font_size": 64, "logarithmic": false, "width": 400, "print_zeroes": false, "no_data_text": "No data", "truncate_legend": null, "x_labels_major_every": null, "title": null, "legend_box_size": 12, "no_prefix": false, "stroke": true, "title_font_size": 16, "include_x_axis": false, "range": [0, 1000000], "truncate_label": null, "margin_top": null, "margin_left": null, "y_labels_major_count": null, "margin_bottom": null, "margin": 20, "stack_from_top": false, "show_x_labels": true}</script>
    <script type="text/javascript" xlink:href="https://tickets.events.ccc.de/media/js/svg.jquery.js"/>
    <script type="text/javascript" xlink:href="https://tickets.events.ccc.de/media/js/pygal-tooltips.js"/>
  </defs>
  <title>Pygal</title>
  <g class="graph stackedline-graph vertical">
    <rect class="background" height="250" width="400" x="0" y="0"/>
    <g class="plot" transform="translate(73, 20)">
      <rect class="background" height="144.0" width="306.8" x="0" y="0"/>
      <g class="axis y">
        <g class="guides">
          <path class="major line" d="M0.000000 141.230769 h306.800000"/>
          <text class="major" x="-5" y="144.030769231">0.0</text>
        </g>
        <g class="guides">
          <path class="guide line" d="M0.000000 127.384615 h306.800000"/>
          <text class="" x="-5" y="130.184615385">100000.0</text>
        </g>
        <g class="guides">
          <path class="guide line" d="M0.000000 113.538462 h306.800000"/>
          <text class="" x="-5" y="116.338461538">200000.0</text>
        </g>
        <g class="guides">
          <path class="guide line" d="M0.000000 99.692308 h306.800000"/>
          <text class="" x="-5" y="102.492307692">300000.0</text>
        </g>
        <g class="guides">
          <path class="guide line" d="M0.000000 85.846154 h306.800000"/>
          <text class="" x="-5" y="88.6461538462">400000.0</text>
        </g>
        <g class="guides">
          <path class="major guide line" d="M0.000000 72.000000 h306.800000"/>
          <text class="major" x="-5" y="74.8">500000.0</text>
        </g>
        <g class="guides">
          <path class="guide line" d="M0.000000 58.153846 h306.800000"/>
          <text class="" x="-5" y="60.9538461538">600000.0</text>
        </g>
        <g class="guides">
          <path class="guide line" d="M0.000000 44.307692 h306.800000"/>
          <text class="" x="-5" y="47.1076923077">700000.0</text>
        </g>
        <g class="guides">
          <path class="guide line" d="M0.000000 30.461538 h306.800000"/>
          <text class="" x="-5" y="33.2615384615">800000.0</text>
        </g>
        <g class="guides">
          <path class="guide line" d="M0.000000 16.615385 h306.800000"/>
          <text class="" x="-5" y="19.4153846154">900000.0</text>
        </g>
        <g class="guides">
          <path class="major guide line" d="M0.000000 2.769231 h306.800000"/>
          <text class="major" x="-5" y="5.56923076923">1000000.0</text>
        </g>
      </g>
      <g class="series serie-0 color-0">
        <path class="line reactive" d="M5.900000 141.230769 L5.900000 141.225231 6.833544 141.198231 7.767089 141.123462 8.700633 141.102000 9.634177 141.088846 10.567722 141.073615 11.501266 141.073615 12.434810 141.068077 13.368354 141.005769 14.301899 140.995385 15.235443 140.989846 16.168987 140.981538 17.102532 140.976692 18.036076 140.976692 18.969620 140.976692 19.903165 140.976692 20.836709 140.969077 21.770253 140.966308 22.703797 140.966308 23.637342 140.958692 24.570886 140.953154 25.504430 140.950385 26.437975 140.947615 27.371519 140.069077 28.305063 140.055923 29.238608 139.855154 30.172152 139.756846 31.105696 139.738846 32.039241 139.736077 32.972785 139.736077 33.906329 139.730538 34.839873 139.730538 35.773418 139.722923 36.706962 139.710462 37.640506 139.710462 38.574051 139.710462 39.507595 139.675846 40.441139 139.675846 41.374684 139.675846 42.308228 139.675846 43.241772 139.673077 44.175316 139.673077 45.108861 139.668231 46.042405 139.668231 46.975949 139.655077 47.909494 139.655077 48.843038 139.311692 49.776582 138.861692 50.710127 138.795923 51.643671 138.795923 52.577215 138.795923 53.510759 138.673385 54.444304 138.673385 55.377848 138.673385 56.311392 138.673385 57.244937 138.670615 58.178481 138.670615 59.112025 138.670615 60.045570 138.654692 60.979114 138.654692 61.912658 138.654692 62.846203 138.654692 63.779747 138.654692 64.713291 138.654692 65.646835 138.654692 66.580380 138.654692 67.513924 138.654692 68.447468 138.651923 69.381013 138.651923 70.314557 138.651923 71.248101 138.641538 72.181646 138.641538 73.115190 138.087000 74.048734 138.078000 74.982278 138.069000 75.915823 138.063462 76.849367 138.063462 77.782911 138.063462 78.716456 138.063462 79.650000 138.063462 80.583544 138.063462 81.517089 138.045462 82.450633 138.039231 83.384177 138.039231 84.317722 137.915308 85.251266 137.915308 86.184810 137.915308 87.118354 137.915308 88.051899 137.915308 88.985443 137.915308 89.918987 137.915308 90.852532 137.915308 91.786076 137.915308 92.719620 137.915308 93.653165 137.667462 94.586709 137.667462 95.520253 137.530385 96.453797 137.530385 97.387342 137.530385 98.320886 137.530385 99.254430 137.530385 100.187975 137.530385 101.121519 137.530385 102.055063 137.524154 102.988608 137.524154 103.922152 137.382923 104.855696 137.382923 105.789241 137.382923 106.722785 137.382923 107.656329 137.382923 108.589873 137.382923 109.523418 137.382923 110.456962 137.382923 111.390506 137.382923 112.324051 137.382923 113.257595 137.382923 114.191139 137.382923 115.124684 137.375308 116.058228 137.369769 116.991772 137.369769 117.925316 137.369769 118.858861 137.369769 119.792405 137.369769 120.725949 137.369769 121.659494 137.369769 122.593038 137.369769 123.526582 137.361462 124.460127 137.361462 125.393671 137.361462 126.327215 137.361462 127.260759 137.361462 128.194304 137.361462 129.127848 137.361462 130.061392 137.361462 130.994937 137.352462 131.928481 137.352462 132.862025 137.352462 133.795570 137.352462 134.729114 137.352462 135.662658 137.352462 136.596203 137.352462 137.529747 137.352462 138.463291 137.352462 139.396835 137.352462 140.330380 137.352462 141.263924 137.352462 142.197468 137.352462 143.131013 137.352462 144.064557 137.349692 144.998101 137.339308 145.931646 137.339308 146.865190 137.339308 147.798734 137.339308 148.732278 137.286000 149.665823 137.275615 150.599367 137.275615 151.532911 137.275615 152.466456 137.275615 153.400000 137.275615 154.333544 137.275615 155.267089 137.275615 156.200633 137.275615 157.134177 137.275615 158.067722 137.275615 159.001266 137.272846 159.934810 136.888615 160.868354 136.786846 161.801899 136.773000 162.735443 136.773000 163.668987 136.773000 164.602532 136.668462 165.536076 136.584692 166.469620 136.584692 167.403165 136.584692 168.336709 136.584692 169.270253 136.584692 170.203797 136.569462 171.137342 136.523769 172.070886 136.543846 173.004430 136.576385 173.937975 136.596462 174.871519 136.588846 175.805063 136.588846 176.738608 136.588846 177.672152 136.588846 178.605696 136.588846 179.539241 136.588846 180.472785 136.588846 181.406329 136.578462 182.339873 136.590923 183.273418 136.585385 184.206962 136.585385 185.140506 136.585385 186.074051 135.843231 187.007595 135.843231 187.941139 135.796154 188.874684 135.741462 189.808228 135.741462 190.741772 135.732462 191.675316 135.732462 192.608861 135.732462 193.542405 135.729692 194.475949 135.729692 195.409494 135.729692 196.343038 135.729692 197.276582 135.726923 198.210127 135.726923 199.143671 135.726923 200.077215 135.726923 201.010759 135.726923 201.944304 135.726923 202.877848 135.726923 203.811392 135.726923 204.744937 135.722077 205.678481 135.714462 206.612025 135.714462 207.545570 135.714462 208.479114 135.038769 209.412658 135.038769 210.346203 135.038769 211.279747 135.038769 212.213291 135.038769 213.146835 135.038769 214.080380 135.038769 215.013924 135.038769 215.947468 135.038769 216.881013 135.038769 217.814557 135.036000 218.748101 135.036000 219.681646 135.036000 220.615190 135.036000 221.548734 135.036000 222.482278 135.036000 223.415823 135.036000 224.349367 135.036000 225.282911 135.036000 226.216456 135.036000 227.150000 135.036000 228.083544 134.664923 229.017089 134.664923 229.950633 134.617154 230.884177 134.617154 231.817722 134.617154 232.751266 134.617154 233.684810 134.601923 234.618354 134.601923 235.551899 134.592923 236.485443 134.592923 237.418987 134.592923 238.352532 134.592923 239.286076 134.592923 240.219620 134.592923 241.153165 134.592923 242.086709 134.587385 243.020253 134.563846 243.953797 134.563846 244.887342 134.563846 245.820886 134.563846 246.754430 134.563846 247.687975 134.558308 248.621519 134.558308 249.555063 134.558308 250.488608 134.553462 251.422152 134.553462 252.355696 134.553462 253.289241 134.553462 254.222785 134.553462 255.156329 134.553462 256.089873 134.267538 257.023418 134.267538 257.956962 134.267538 258.890506 134.267538 259.824051 134.267538 260.757595 134.267538 261.691139 134.264769 262.624684 134.264769 263.558228 134.264769 264.491772 134.264769 265.425316 134.264769 266.358861 134.264769 267.292405 134.264769 268.225949 134.264769 269.159494 134.264769 270.093038 134.264769 271.026582 134.257154 271.960127 134.257154 272.893671 134.257154 273.827215 134.257154 274.760759 134.257154 275.694304 134.246769 276.627848 134.246769 277.561392 134.246769 278.494937 134.244000 279.428481 134.244000 280.362025 134.244000 281.295570 134.244000 282.229114 134.244000 283.162658 134.244000 284.096203 134.244000 285.029747 134.244000 285.963291 134.236385 286.896835 134.236385 287.830380 134.236385 288.763924 134.236385 289.697468 134.236385 290.631013 134.236385 291.564557 134.236385 292.498101 134.236385 293.431646 134.236385 294.365190 134.236385 295.298734 134.236385 296.232278 134.236385 297.165823 134.236385 298.099367 134.233615 299.032911 134.233615 299.966456 134.233615 300.900000 134.233615 300.900000 141.230769"/>
      </g>
      <g class="series serie-1 color-1">
        <path class="line reactive" d="M5.900000 141.225231 L6.833544 141.120692 7.767089 140.943462 8.700633 140.844462 9.634177 140.803615 10.567722 140.788385 11.501266 140.788385 12.434810 140.782846 13.368354 140.720538 14.301899 140.660308 15.235443 140.654769 16.168987 140.646462 17.102532 140.641615 18.036076 140.641615 18.969620 140.641615 19.903165 140.641615 20.836709 140.634000 21.770253 140.631231 22.703797 140.631231 23.637342 140.623615 24.570886 140.562692 25.504430 140.510077 26.437975 140.507308 27.371519 138.432462 28.305063 138.419308 29.238608 138.030231 30.172152 137.757462 31.105696 137.659154 32.039241 137.656385 32.972785 137.631462 33.906329 137.625923 34.839873 137.625923 35.773418 137.618308 36.706962 137.605846 37.640506 137.580923 38.574051 137.580923 39.507595 137.521385 40.441139 137.521385 41.374684 137.521385 42.308228 137.521385 43.241772 137.518615 44.175316 137.518615 45.108861 137.486077 46.042405 137.486077 46.975949 137.472923 47.909494 137.472923 48.843038 136.703077 49.776582 135.710308 50.710127 135.362077 51.643671 135.362077 52.577215 135.362077 53.510759 135.087231 54.444304 135.062308 55.377848 135.062308 56.311392 135.062308 57.244937 135.059538 58.178481 135.059538 59.112025 135.059538 60.045570 134.935615 60.979114 134.935615 61.912658 134.935615 62.846203 134.935615 63.779747 134.935615 64.713291 134.935615 65.646835 134.935615 66.580380 134.935615 67.513924 134.935615 68.447468 134.932846 69.381013 134.932846 70.314557 134.932846 71.248101 134.922462 72.181646 134.922462 73.115190 133.463769 74.048734 133.427077 74.982278 133.418077 75.915823 133.412538 76.849367 133.412538 77.782911 133.412538 78.716456 133.412538 79.650000 133.412538 80.583544 133.412538 81.517089 133.344692 82.450633 133.338462 83.384177 133.338462 84.317722 133.049769 85.251266 133.049769 86.184810 133.049769 87.118354 133.049769 88.051899 133.049769 88.985443 133.049769 89.918987 133.049769 90.852532 133.049769 91.786076 133.049769 92.719620 133.049769 93.653165 132.322846 94.586709 132.322846 95.520253 132.076385 96.453797 132.076385 97.387342 132.076385 98.320886 132.076385 99.254430 132.076385 100.187975 132.076385 101.121519 132.076385 102.055063 132.070154 102.988608 132.070154 103.922152 131.715694 104.855696 131.715694 105.789241 131.715694 106.722785 131.715694 107.656329 131.715694 108.589873 131.715694 109.523418 131.715694 110.456962 131.715694 111.390506 131.715694 112.324051 131.715694 113.257595 131.715694 114.191139 131.715694 115.124684 131.708078 116.058228 131.702540 116.991772 131.702540 117.925316 131.702540 118.858861 131.702540 119.792405 131.702540 120.725949 131.702540 121.659494 131.702540 122.593038 131.702540 123.526582 131.669309 124.460127 131.669309 125.393671 131.669309 126.327215 131.669309 127.260759 131.669309 128.194304 131.669309 129.127848 131.669309 130.061392 131.669309 130.994937 131.660309 131.928481 131.660309 132.862025 131.660309 133.795570 131.660309 134.729114 131.660309 135.662658 131.660309 136.596203 131.660309 137.529747 131.660309 138.463291 131.660309 139.396835 131.660309 140.330380 131.660309 141.263924 131.660309 142.197468 131.660309 143.131013 131.660309 144.064557 131.657540 144.998101 131.640232 145.931646 131.640232 146.865190 131.640232 147.798734 131.640232 148.732278 131.480309 149.665823 131.469924 150.599367 131.469924 151.532911 131.469924 152.466456 131.469924 153.400000 131.469924 154.333544 131.469924 155.267089 131.469924 156.200633 131.469924 157.134177 131.469924 158.067722 131.469924 159.001266 131.467155 159.934810 130.414155 160.868354 130.063155 161.801899 130.049309 162.735443 130.049309 163.668987 130.049309 164.602532 129.687232 165.536076 129.351463 166.469620 129.351463 167.403165 129.351463 168.336709 129.351463 169.270253 129.351463 170.203797 129.336232 171.137342 129.188078 172.070886 129.208155 173.004430 129.287771 173.937975 129.307848 174.871519 129.300232 175.805063 129.300232 176.738608 129.300232 177.672152 129.300232 178.605696 129.300232 179.539241 129.300232 180.472785 129.300232 181.406329 129.289848 182.339873 129.302309 183.273418 129.296771 184.206962 129.296771 185.140506 129.271848 186.074051 127.039848 187.007595 127.039848 187.941139 126.992771 188.874684 126.938078 189.808228 126.938078 190.741772 126.854309 191.675316 126.854309 192.608861 126.829386 193.542405 126.776771 194.475949 126.751848 195.409494 126.751848 196.343038 126.751848 197.276582 126.749078 198.210127 126.749078 199.143671 126.749078 200.077215 126.749078 201.010759 126.749078 201.944304 126.749078 202.877848 126.749078 203.811392 126.749078 204.744937 126.744232 205.678481 126.736617 206.612025 126.736617 207.545570 126.736617 208.479114 125.001694 209.412658 125.001694 210.346203 125.001694 211.279747 125.001694 212.213291 125.001694 213.146835 125.001694 214.080380 124.997540 215.013924 124.997540 215.947468 124.997540 216.881013 124.997540 217.814557 124.994771 218.748101 124.994771 219.681646 124.994771 220.615190 124.994771 221.548734 124.994771 222.482278 124.994771 223.415823 124.994771 224.349367 124.994771 225.282911 124.994771 226.216456 124.994771 227.150000 124.994771 228.083544 123.507694 229.017089 123.507694 229.950633 123.297924 230.884177 123.270232 231.817722 123.270232 232.751266 123.270232 233.684810 123.135924 234.618354 123.135924 235.551899 123.126924 236.485443 123.126924 237.418987 123.126924 238.352532 123.126924 239.286076 123.126924 240.219620 123.126924 241.153165 123.126924 242.086709 123.121386 243.020253 123.072924 243.953797 123.072924 244.887342 123.072924 245.820886 123.072924 246.754430 123.072924 247.687975 123.060463 248.621519 123.060463 249.555063 123.060463 250.488608 123.055617 251.422152 123.055617 252.355696 123.055617 253.289241 123.055617 254.222785 123.055617 255.156329 123.034848 256.089873 121.872466 257.023418 121.847543 257.956962 121.847543 258.890506 121.847543 259.824051 121.847543 260.757595 121.847543 261.691139 121.817081 262.624684 121.817081 263.558228 121.817081 264.491772 121.817081 265.425316 121.817081 266.358861 121.817081 267.292405 121.817081 268.225949 121.817081 269.159494 121.817081 270.093038 121.817081 271.026582 121.784543 271.960127 121.784543 272.893671 121.784543 273.827215 121.784543 274.760759 121.784543 275.694304 121.774158 276.627848 121.774158 277.561392 121.774158 278.494937 121.771389 279.428481 121.771389 280.362025 121.771389 281.295570 121.771389 282.229114 121.743696 283.162658 121.743696 284.096203 121.743696 285.029747 121.743696 285.963291 121.669620 286.896835 121.669620 287.830380 121.669620 288.763924 121.669620 289.697468 121.669620 290.631013 121.669620 291.564557 121.669620 292.498101 121.669620 293.431646 121.641927 294.365190 121.641927 295.298734 121.641927 296.232278 121.641927 297.165823 121.641927 298.099367 121.639158 299.032911 121.639158 299.966456 121.639158 300.900000 121.611466 300.900000 134.233615 299.966456 134.233615 299.032911 134.233615 298.099367 134.233615 297.165823 134.236385 296.232278 134.236385 295.298734 134.236385 294.365190 134.236385 293.431646 134.236385 292.498101 134.236385 291.564557 134.236385 290.631013 134.236385 289.697468 134.236385 288.763924 134.236385 287.830380 134.236385 286.896835 134.236385 285.963291 134.236385 285.029747 134.244000 284.096203 134.244000 283.162658 134.244000 282.229114 134.244000 281.295570 134.244000 280.362025 134.244000 279.428481 134.244000 278.494937 134.244000 277.561392 134.246769 276.627848 134.246769 275.694304 134.246769 274.760759 134.257154 273.827215 134.257154 272.893671 134.257154 271.960127 134.257154 271.026582 134.257154 270.093038 134.264769 269.159494 134.264769 268.225949 134.264769 267.292405 134.264769 266.358861 134.264769 265.425316 134.264769 264.491772 134.264769 263.558228 134.264769 262.624684 134.264769 261.691139 134.264769 260.757595 134.267538 259.824051 134.267538 258.890506 134.267538 257.956962 134.267538 257.023418 134.267538 256.089873 134.267538 255.156329 134.553462 254.222785 134.553462 253.289241 134.553462 252.355696 134.553462 251.422152 134.553462 250.488608 134.553462 249.555063 134.558308 248.621519 134.558308 247.687975 134.558308 246.754430 134.563846 245.820886 134.563846 244.887342 134.563846 243.953797 134.563846 243.020253 134.563846 242.086709 134.587385 241.153165 134.592923 240.219620 134.592923 239.286076 134.592923 238.352532 134.592923 237.418987 134.592923 236.485443 134.592923 235.551899 134.592923 234.618354 134.601923 233.684810 134.601923 232.751266 134.617154 231.817722 134.617154 230.884177 134.617154 229.950633 134.617154 229.017089 134.664923 228.083544 134.664923 227.150000 135.036000 226.216456 135.036000 225.282911 135.036000 224.349367 135.036000 223.415823 135.036000 222.482278 135.036000 221.548734 135.036000 220.615190 135.036000 219.681646 135.036000 218.748101 135.036000 217.814557 135.036000 216.881013 135.038769 215.947468 135.038769 215.013924 135.038769 214.080380 135.038769 213.146835 135.038769 212.213291 135.038769 211.279747 135.038769 210.346203 135.038769 209.412658 135.038769 208.479114 135.038769 207.545570 135.714462 206.612025 135.714462 205.678481 135.714462 204.744937 135.722077 203.811392 135.726923 202.877848 135.726923 201.944304 135.726923 201.010759 135.726923 200.077215 135.726923 199.143671 135.726923 198.210127 135.726923 197.276582 135.726923 196.343038 135.729692 195.409494 135.729692 194.475949 135.729692 193.542405 135.729692 192.608861 135.732462 191.675316 135.732462 190.741772 135.732462 189.808228 135.741462 188.874684 135.741462 187.941139 135.796154 187.007595 135.843231 186.074051 135.843231 185.140506 136.585385 184.206962 136.585385 183.273418 136.585385 182.339873 136.590923 181.406329 136.578462 180.472785 136.588846 179.539241 136.588846 178.605696 136.588846 177.672152 136.588846 176.738608 136.588846 175.805063 136.588846 174.871519 136.588846 173.937975 136.596462 173.004430 136.576385 172.070886 136.543846 171.137342 136.523769 170.203797 136.569462 169.270253 136.584692 168.336709 136.584692 167.403165 136.584692 166.469620 136.584692 165.536076 136.584692 164.602532 136.668462 163.668987 136.773000 162.735443 136.773000 161.801899 136.773000 160.868354 136.786846 159.934810 136.888615 159.001266 137.272846 158.067722 137.275615 157.134177 137.275615 156.200633 137.275615 155.267089 137.275615 154.333544 137.275615 153.400000 137.275615 152.466456 137.275615 151.532911 137.275615 150.599367 137.275615 149.665823 137.275615 148.732278 137.286000 147.798734 137.339308 146.865190 137.339308 145.931646 137.339308 144.998101 137.339308 144.064557 137.349692 143.131013 137.352462 142.197468 137.352462 141.263924 137.352462 140.330380 137.352462 139.396835 137.352462 138.463291 137.352462 137.529747 137.352462 136.596203 137.352462 135.662658 137.352462 134.729114 137.352462 133.795570 137.352462 132.862025 137.352462 131.928481 137.352462 130.994937 137.352462 130.061392 137.361462 129.127848 137.361462 128.194304 137.361462 127.260759 137.361462 126.327215 137.361462 125.393671 137.361462 124.460127 137.361462 123.526582 137.361462 122.593038 137.369769 121.659494 137.369769 120.725949 137.369769 119.792405 137.369769 118.858861 137.369769 117.925316 137.369769 116.991772 137.369769 116.058228 137.369769 115.124684 137.375308 114.191139 137.382923 113.257595 137.382923 112.324051 137.382923 111.390506 137.382923 110.456962 137.382923 109.523418 137.382923 108.589873 137.382923 107.656329 137.382923 106.722785 137.382923 105.789241 137.382923 104.855696 137.382923 103.922152 137.382923 102.988608 137.524154 102.055063 137.524154 101.121519 137.530385 100.187975 137.530385 99.254430 137.530385 98.320886 137.530385 97.387342 137.530385 96.453797 137.530385 95.520253 137.530385 94.586709 137.667462 93.653165 137.667462 92.719620 137.915308 91.786076 137.915308 90.852532 137.915308 89.918987 137.915308 88.985443 137.915308 88.051899 137.915308 87.118354 137.915308 86.184810 137.915308 85.251266 137.915308 84.317722 137.915308 83.384177 138.039231 82.450633 138.039231 81.517089 138.045462 80.583544 138.063462 79.650000 138.063462 78.716456 138.063462 77.782911 138.063462 76.849367 138.063462 75.915823 138.063462 74.982278 138.069000 74.048734 138.078000 73.115190 138.087000 72.181646 138.641538 71.248101 138.641538 70.314557 138.651923 69.381013 138.651923 68.447468 138.651923 67.513924 138.654692 66.580380 138.654692 65.646835 138.654692 64.713291 138.654692 63.779747 138.654692 62.846203 138.654692 61.912658 138.654692 60.979114 138.654692 60.045570 138.654692 59.112025 138.670615 58.178481 138.670615 57.244937 138.670615 56.311392 138.673385 55.377848 138.673385 54.444304 138.673385 53.510759 138.673385 52.577215 138.795923 51.643671 138.795923 50.710127 138.795923 49.776582 138.861692 48.843038 139.311692 47.909494 139.655077 46.975949 139.655077 46.042405 139.668231 45.108861 139.668231 44.175316 139.673077 43.241772 139.673077 42.308228 139.675846 41.374684 139.675846 40.441139 139.675846 39.507595 139.675846 38.574051 139.710462 37.640506 139.710462 36.706962 139.710462 35.773418 139.722923 34.839873 139.730538 33.906329 139.730538 32.972785 139.736077 32.039241 139.736077 31.105696 139.738846 30.172152 139.756846 29.238608 139.855154 28.305063 140.055923 27.371519 140.069077 26.437975 140.947615 25.504430 140.950385 24.570886 140.953154 23.637342 140.958692 22.703797 140.966308 21.770253 140.966308 20.836709 140.969077 19.903165 140.976692 18.969620 140.976692 18.036076 140.976692 17.102532 140.976692 16.168987 140.981538 15.235443 140.989846 14.301899 140.995385 13.368354 141.005769 12.434810 141.068077 11.501266 141.073615 10.567722 141.073615 9.634177 141.088846 8.700633 141.102000 7.767089 141.123462 6.833544 141.198231 5.900000 141.225231"/>
      </g>
      <g class="series serie-2 color-2">
        <path class="line reactive" d="M5.900000 141.012000 L6.833544 140.694231 7.767089 140.029615 8.700633 139.595538 9.634177 139.280538 10.567722 139.204385 11.501266 139.143462 12.434810 139.107462 13.368354 138.740538 14.301899 138.649846 15.235443 138.552923 16.168987 138.422769 17.102532 138.357000 18.036076 138.357000 18.969620 138.357000 19.903165 138.357000 20.836709 138.288462 21.770253 138.194308 22.703797 138.163846 23.637342 138.095308 24.570886 138.034385 25.504430 137.951308 26.437975 137.887615 27.371519 129.598615 28.305063 129.494077 29.238608 127.216385 30.172152 126.182077 31.105696 125.779154 32.039241 125.745923 32.972785 125.721000 33.906329 125.715462 34.839873 125.715462 35.773418 125.616462 36.706962 125.543077 37.640506 125.518154 38.574051 125.457231 39.507595 125.154000 40.441139 125.154000 41.374684 125.093077 42.308228 125.093077 43.241772 125.059846 44.175316 125.059846 45.108861 125.027308 46.042405 125.027308 46.975949 124.800923 47.909494 124.800923 48.843038 121.441846 49.776582 117.616154 50.710127 116.658692 51.643671 116.658692 52.577215 116.536846 53.510759 115.561385 54.444304 115.475538 55.377848 115.445077 56.311392 115.414615 57.244937 115.350923 58.178481 115.320462 59.112025 115.320462 60.045570 115.044231 60.979114 115.044231 61.912658 115.044231 62.846203 115.044231 63.779747 115.044231 64.713291 115.044231 65.646835 115.044231 66.580380 115.044231 67.513924 115.044231 68.447468 115.011000 69.381013 115.011000 70.314557 115.011000 71.248101 115.000615 72.181646 115.000615 73.115190 109.977923 74.048734 109.880308 74.982278 109.840846 75.915823 109.804846 76.849367 109.774385 77.782911 109.774385 78.716456 109.774385 79.650000 109.774385 80.583544 109.683000 81.517089 109.584692 82.450633 109.548000 83.384177 109.548000 84.317722 108.711000 85.251266 108.711000 86.184810 108.680538 87.118354 108.650077 88.051899 108.650077 88.985443 108.650077 89.918987 108.650077 90.852532 108.650077 91.786076 108.650077 92.719620 108.619615 93.653165 106.339154 94.586709 106.339154 95.520253 105.300692 96.453797 105.209308 97.387342 105.209308 98.320886 105.209308 99.254430 105.209308 100.187975 105.209308 101.121519 105.209308 102.055063 105.172615 102.988608 105.172615 103.922152 103.873848 104.855696 103.873848 105.789241 103.873848 106.722785 103.873848 107.656329 103.873848 108.589873 103.873848 109.523418 103.873848 110.456962 103.873848 111.390506 103.873848 112.324051 103.873848 113.257595 103.873848 114.191139 103.873848 115.124684 103.866232 116.058228 103.769309 116.991772 103.769309 117.925316 103.769309 118.858861 103.769309 119.792405 103.769309 120.725949 103.769309 121.659494 103.769309 122.593038 103.769309 123.526582 103.614232 124.460127 103.583771 125.393671 103.553309 126.327215 103.553309 127.260759 103.553309 128.194304 103.553309 129.127848 103.553309 130.061392 103.553309 130.994937 103.544309 131.928481 103.544309 132.862025 103.544309 133.795570 103.544309 134.729114 103.544309 135.662658 103.544309 136.596203 103.544309 137.529747 103.452924 138.463291 103.452924 139.396835 103.452924 140.330380 103.422463 141.263924 103.422463 142.197468 103.422463 143.131013 103.392001 144.064557 103.389232 144.998101 103.371924 145.931646 103.341463 146.865190 103.341463 147.798734 103.341463 148.732278 102.907386 149.665823 102.866540 150.599367 102.866540 151.532911 102.866540 152.466456 102.866540 153.400000 102.866540 154.333544 102.866540 155.267089 102.866540 156.200633 102.866540 157.134177 102.866540 158.067722 102.866540 159.001266 102.772386 159.934810 99.617540 160.868354 98.748694 161.801899 98.643463 162.735443 98.643463 163.668987 98.643463 164.602532 97.580771 165.536076 96.940386 166.469620 96.940386 167.403165 96.940386 168.336709 96.940386 169.270253 96.909924 170.203797 96.864232 171.137342 96.624694 172.070886 96.705694 173.004430 96.815771 173.937975 96.896771 174.871519 96.889155 175.805063 96.889155 176.738608 96.828232 177.672152 96.828232 178.605696 96.828232 179.539241 96.828232 180.472785 96.797771 181.406329 96.726463 182.339873 96.799848 183.273418 96.794309 184.206962 96.794309 185.140506 96.769386 186.074051 90.272771 187.007595 90.272771 187.941139 90.103848 188.874684 89.988232 189.808228 89.988232 190.741772 89.904463 191.675316 89.843540 192.608861 89.818617 193.542405 89.766001 194.475949 89.710617 195.409494 89.710617 196.343038 89.710617 197.276582 89.677386 198.210127 89.677386 199.143671 89.677386 200.077215 89.677386 201.010759 89.677386 201.944304 89.677386 202.877848 89.677386 203.811392 89.677386 204.744937 89.642078 205.678481 89.604001 206.612025 89.573540 207.545570 89.573540 208.479114 85.432155 209.412658 85.371232 210.346203 85.310309 211.279747 85.310309 212.213291 85.279848 213.146835 85.279848 214.080380 85.275694 215.013924 85.275694 215.947468 85.214771 216.881013 85.214771 217.814557 85.212001 218.748101 85.212001 219.681646 85.212001 220.615190 85.212001 221.548734 85.212001 222.482278 85.212001 223.415823 85.212001 224.349367 85.212001 225.282911 85.212001 226.216456 85.212001 227.150000 85.212001 228.083544 80.709232 229.017089 80.709232 229.950633 80.073001 230.884177 79.923463 231.817722 79.923463 232.751266 79.893001 233.684810 79.606386 234.618354 79.606386 235.551899 79.536463 236.485443 79.536463 237.418987 79.506001 238.352532 79.506001 239.286076 79.506001 240.219620 79.506001 241.153165 79.506001 242.086709 79.500463 243.020253 79.391078 243.953797 79.391078 244.887342 79.391078 245.820886 79.391078 246.754430 79.391078 247.687975 79.348155 248.621519 79.348155 249.555063 79.348155 250.488608 79.282386 251.422152 79.251924 252.355696 79.251924 253.289241 79.221463 254.222785 79.160540 255.156329 79.139771 256.089873 75.388158 257.023418 75.363235 257.956962 75.363235 258.890506 75.363235 259.824051 75.363235 260.757595 75.363235 261.691139 75.332773 262.624684 75.271850 263.558228 75.271850 264.491772 75.271850 265.425316 75.271850 266.358861 75.271850 267.292405 75.271850 268.225949 75.271850 269.159494 75.271850 270.093038 75.271850 271.026582 75.178389 271.960127 75.178389 272.893671 75.147927 273.827215 75.147927 274.760759 75.147927 275.694304 75.076620 276.627848 75.076620 277.561392 75.076620 278.494937 75.043389 279.428481 75.043389 280.362025 75.043389 281.295570 75.043389 282.229114 74.954773 283.162658 74.954773 284.096203 74.954773 285.029747 74.954773 285.963291 74.789312 286.896835 74.789312 287.830380 74.789312 288.763924 74.789312 289.697468 74.789312 290.631013 74.789312 291.564557 74.789312 292.498101 74.789312 293.431646 74.731158 294.365190 74.731158 295.298734 74.731158 296.232278 74.731158 297.165823 74.670235 298.099367 74.637004 299.032911 74.637004 299.966456 74.637004 300.900000 74.609312 300.900000 121.611466 299.966456 121.639158 299.032911 121.639158 298.099367 121.639158 297.165823 121.641927 296.232278 121.641927 295.298734 121.641927 294.365190 121.641927 293.431646 121.641927 292.498101 121.669620 291.564557 121.669620 290.631013 121.669620 289.697468 121.669620 288.763924 121.669620 287.830380 121.669620 286.896835 121.669620 285.963291 121.669620 285.029747 121.743696 284.096203 121.743696 283.162658 121.743696 282.229114 121.743696 281.295570 121.771389 280.362025 121.771389 279.428481 121.771389 278.494937 121.771389 277.561392 121.774158 276.627848 121.774158 275.694304 121.774158 274.760759 121.784543 273.827215 121.784543 272.893671 121.784543 271.960127 121.784543 271.026582 121.784543 270.093038 121.817081 269.159494 121.817081 268.225949 121.817081 267.292405 121.817081 266.358861 121.817081 265.425316 121.817081 264.491772 121.817081 263.558228 121.817081 262.624684 121.817081 261.691139 121.817081 260.757595 121.847543 259.824051 121.847543 258.890506 121.847543 257.956962 121.847543 257.023418 121.847543 256.089873 121.872466 255.156329 123.034848 254.222785 123.055617 253.289241 123.055617 252.355696 123.055617 251.422152 123.055617 250.488608 123.055617 249.555063 123.060463 248.621519 123.060463 247.687975 123.060463 246.754430 123.072924 245.820886 123.072924 244.887342 123.072924 243.953797 123.072924 243.020253 123.072924 242.086709 123.121386 241.153165 123.126924 240.219620 123.126924 239.286076 123.126924 238.352532 123.126924 237.418987 123.126924 236.485443 123.126924 235.551899 123.126924 234.618354 123.135924 233.684810 123.135924 232.751266 123.270232 231.817722 123.270232 230.884177 123.270232 229.950633 123.297924 229.017089 123.507694 228.083544 123.507694 227.150000 124.994771 226.216456 124.994771 225.282911 124.994771 224.349367 124.994771 223.415823 124.994771 222.482278 124.994771 221.548734 124.994771 220.615190 124.994771 219.681646 124.994771 218.748101 124.994771 217.814557 124.994771 216.881013 124.997540 215.947468 124.997540 215.013924 124.997540 214.080380 124.997540 213.146835 125.001694 212.213291 125.001694 211.279747 125.001694 210.346203 125.001694 209.412658 125.001694 208.479114 125.001694 207.545570 126.736617 206.612025 126.736617 205.678481 126.736617 204.744937 126.744232 203.811392 126.749078 202.877848 126.749078 201.944304 126.749078 201.010759 126.749078 200.077215 126.749078 199.143671 126.749078 198.210127 126.749078 197.276582 126.749078 196.343038 126.751848 195.409494 126.751848 194.475949 126.751848 193.542405 126.776771 192.608861 126.829386 191.675316 126.854309 190.741772 126.854309 189.808228 126.938078 188.874684 126.938078 187.941139 126.992771 187.007595 127.039848 186.074051 127.039848 185.140506 129.271848 184.206962 129.296771 183.273418 129.296771 182.339873 129.302309 181.406329 129.289848 180.472785 129.300232 179.539241 129.300232 178.605696 129.300232 177.672152 129.300232 176.738608 129.300232 175.805063 129.300232 174.871519 129.300232 173.937975 129.307848 173.004430 129.287771 172.070886 129.208155 171.137342 129.188078 170.203797 129.336232 169.270253 129.351463 168.336709 129.351463 167.403165 129.351463 166.469620 129.351463 165.536076 129.351463 164.602532 129.687232 163.668987 130.049309 162.735443 130.049309 161.801899 130.049309 160.868354 130.063155 159.934810 130.414155 159.001266 131.467155 158.067722 131.469924 157.134177 131.469924 156.200633 131.469924 155.267089 131.469924 154.333544 131.469924 153.400000 131.469924 152.466456 131.469924 151.532911 131.469924 150.599367 131.469924 149.665823 131.469924 148.732278 131.480309 147.798734 131.640232 146.865190 131.640232 145.931646 131.640232 144.998101 131.640232 144.064557 131.657540 143.131013 131.660309 142.197468 131.660309 141.263924 131.660309 140.330380 131.660309 139.396835 131.660309 138.463291 131.660309 137.529747 131.660309 136.596203 131.660309 135.662658 131.660309 134.729114 131.660309 133.795570 131.660309 132.862025 131.660309 131.928481 131.660309 130.994937 131.660309 130.061392 131.669309 129.127848 131.669309 128.194304 131.669309 127.260759 131.669309 126.327215 131.669309 125.393671 131.669309 124.460127 131.669309 123.526582 131.669309 122.593038 131.702540 121.659494 131.702540 120.725949 131.702540 119.792405 131.702540 118.858861 131.702540 117.925316 131.702540 116.991772 131.702540 116.058228 131.702540 115.124684 131.708078 114.191139 131.715694 113.257595 131.715694 112.324051 131.715694 111.390506 131.715694 110.456962 131.715694 109.523418 131.715694 108.589873 131.715694 107.656329 131.715694 106.722785 131.715694 105.789241 131.715694 104.855696 131.715694 103.922152 131.715694 102.988608 132.070154 102.055063 132.070154 101.121519 132.076385 100.187975 132.076385 99.254430 132.076385 98.320886 132.076385 97.387342 132.076385 96.453797 132.076385 95.520253 132.076385 94.586709 132.322846 93.653165 132.322846 92.719620 133.049769 91.786076 133.049769 90.852532 133.049769 89.918987 133.049769 88.985443 133.049769 88.051899 133.049769 87.118354 133.049769 86.184810 133.049769 85.251266 133.049769 84.317722 133.049769 83.384177 133.338462 82.450633 133.338462 81.517089 133.344692 80.583544 133.412538 79.650000 133.412538 78.716456 133.412538 77.782911 133.412538 76.849367 133.412538 75.915823 133.412538 74.982278 133.418077 74.048734 133.427077 73.115190 133.463769 72.181646 134.922462 71.248101 134.922462 70.314557 134.932846 69.381013 134.932846 68.447468 134.932846 67.513924 134.935615 66.580380 134.935615 65.646835 134.935615 64.713291 134.935615 63.779747 134.935615 62.846203 134.935615 61.912658 134.935615 60.979114 134.935615 60.045570 134.935615 59.112025 135.059538 58.178481 135.059538 57.244937 135.059538 56.311392 135.062308 55.377848 135.062308 54.444304 135.062308 53.510759 135.087231 52.577215 135.362077 51.643671 135.362077 50.710127 135.362077 49.776582 135.710308 48.843038 136.703077 47.909494 137.472923 46.975949 137.472923 46.042405 137.486077 45.108861 137.486077 44.175316 137.518615 43.241772 137.518615 42.308228 137.521385 41.374684 137.521385 40.441139 137.521385 39.507595 137.521385 38.574051 137.580923 37.640506 137.580923 36.706962 137.605846 35.773418 137.618308 34.839873 137.625923 33.906329 137.625923 32.972785 137.631462 32.039241 137.656385 31.105696 137.659154 30.172152 137.757462 29.238608 138.030231 28.305063 138.419308 27.371519 138.432462 26.437975 140.507308 25.504430 140.510077 24.570886 140.562692 23.637342 140.623615 22.703797 140.631231 21.770253 140.631231 20.836709 140.634000 19.903165 140.641615 18.969620 140.641615 18.036076 140.641615 17.102532 140.641615 16.168987 140.646462 15.235443 140.654769 14.301899 140.660308 13.368354 140.720538 12.434810 140.782846 11.501266 140.788385 10.567722 140.788385 9.634177 140.803615 8.700633 140.844462 7.767089 140.943462 6.833544 141.120692 5.900000 141.225231"/>
      </g>
      <g class="series serie-3 color-3">
        <path class="line reactive" d="M5.900000 141.012000 L6.833544 140.652692 7.767089 139.821923 8.700633 139.354615 9.634177 138.970385 10.567722 138.861000 11.501266 138.800077 12.434810 138.625615 13.368354 138.042692 14.301899 137.918769 15.235443 137.821846 16.168987 137.655692 17.102532 137.589923 18.036076 137.589923 18.969620 137.589923 19.903165 137.589923 20.836709 137.521385 21.770253 137.427231 22.703797 137.396769 23.637342 137.295000 24.570886 137.234077 25.504430 137.151000 26.437975 137.087308 27.371519 125.538923 28.305063 125.434385 29.238608 122.375769 30.172152 120.915000 31.105696 120.445615 32.039241 120.370846 32.972785 120.345923 33.906329 120.307154 34.839873 120.307154 35.773418 120.172154 36.706962 120.098769 37.640506 120.073846 38.574051 120.012923 39.507595 119.643231 40.441139 119.643231 41.374684 119.582308 42.308228 119.582308 43.241772 119.549077 44.175316 119.549077 45.108861 119.516538 46.042405 119.516538 46.975949 119.290154 47.909494 119.290154 48.843038 114.986769 49.776582 109.926000 50.710127 108.652846 51.643671 108.652846 52.577215 108.531000 53.510759 107.273077 54.444304 107.187231 55.377848 107.156769 56.311392 107.126308 57.244937 107.062615 58.178481 107.032154 59.112025 107.032154 60.045570 106.722692 60.979114 106.722692 61.912658 106.722692 62.846203 106.722692 63.779747 106.722692 64.713291 106.722692 65.646835 106.722692 66.580380 106.722692 67.513924 106.722692 68.447468 106.689462 69.381013 106.689462 70.314557 106.689462 71.248101 106.612615 72.181646 106.612615 73.115190 99.831462 74.048734 99.733846 74.982278 99.694385 75.915823 99.658385 76.849367 99.627923 77.782911 99.627923 78.716456 99.627923 79.650000 99.627923 80.583544 99.536538 81.517089 99.438231 82.450633 99.401538 83.384177 99.401538 84.317722 98.453769 85.251266 98.453769 86.184810 98.423308 87.118354 98.392846 88.051899 98.392846 88.985443 98.392846 89.918987 98.392846 90.852532 98.392846 91.786076 98.392846 92.719620 98.362385 93.653165 95.096077 94.586709 95.096077 95.520253 93.816692 96.453797 93.725308 97.387342 93.692077 98.320886 93.692077 99.254430 93.692077 100.187975 93.692077 101.121519 93.692077 102.055063 93.655385 102.988608 93.655385 103.922152 92.151694 104.855696 92.151694 105.789241 92.151694 106.722785 92.151694 107.656329 92.151694 108.589873 92.151694 109.523418 92.151694 110.456962 92.151694 111.390506 92.151694 112.324051 92.151694 113.257595 92.151694 114.191139 92.151694 115.124684 92.144078 116.058228 92.047155 116.991772 92.047155 117.925316 92.047155 118.858861 92.047155 119.792405 92.047155 120.725949 92.047155 121.659494 92.047155 122.593038 92.047155 123.526582 91.892078 124.460127 91.861617 125.393671 91.831155 126.327215 91.831155 127.260759 91.831155 128.194304 91.831155 129.127848 91.789617 130.061392 91.789617 130.994937 91.744617 131.928481 91.744617 132.862025 91.744617 133.795570 91.744617 134.729114 91.744617 135.662658 91.744617 136.596203 91.744617 137.529747 91.653232 138.463291 91.653232 139.396835 91.653232 140.330380 91.622771 141.263924 91.622771 142.197468 91.622771 143.131013 91.592309 144.064557 91.556309 144.998101 91.539001 145.931646 91.508540 146.865190 91.508540 147.798734 91.508540 148.732278 91.038463 149.665823 90.997617 150.599367 90.997617 151.532911 90.997617 152.466456 90.997617 153.400000 90.997617 154.333544 90.997617 155.267089 90.997617 156.200633 90.997617 157.134177 90.997617 158.067722 90.997617 159.001266 90.903463 159.934810 86.740617 160.868354 85.738848 161.801899 85.633617 162.735443 85.633617 163.668987 85.633617 164.602532 84.338309 165.536076 83.448694 166.469620 83.448694 167.403165 83.448694 168.336709 83.448694 169.270253 83.418232 170.203797 83.339309 171.137342 82.922540 172.070886 83.003540 173.004430 83.146848 173.937975 83.261078 174.871519 83.253463 175.805063 83.253463 176.738608 83.192540 177.672152 83.192540 178.605696 83.192540 179.539241 83.192540 180.472785 83.162078 181.406329 83.090771 182.339873 83.164155 183.273418 83.158617 184.206962 83.158617 185.140506 83.133694 186.074051 75.078001 187.007595 75.078001 187.941139 74.909078 188.874684 74.754694 189.808228 74.754694 190.741772 74.670924 191.675316 74.610001 192.608861 74.585078 193.542405 74.466001 194.475949 74.341386 195.409494 74.341386 196.343038 74.341386 197.276582 74.308155 198.210127 74.308155 199.143671 74.308155 200.077215 74.308155 201.010759 74.308155 201.944304 74.272155 202.877848 74.272155 203.811392 74.272155 204.744937 74.236848 205.678481 74.198771 206.612025 74.168309 207.545570 74.126771 208.479114 68.991232 209.412658 68.930309 210.346203 68.869386 211.279747 68.869386 212.213291 68.838924 213.146835 68.838924 214.080380 68.801540 215.013924 68.801540 215.947468 68.740617 216.881013 68.740617 217.814557 68.704617 218.748101 68.704617 219.681646 68.704617 220.615190 68.704617 221.548734 68.704617 222.482278 68.704617 223.415823 68.704617 224.349367 68.704617 225.282911 68.704617 226.216456 68.671386 227.150000 68.671386 228.083544 63.099694 229.017089 63.099694 229.950633 62.388694 230.884177 62.239155 231.817722 62.239155 232.751266 62.208694 233.684810 61.822386 234.618354 61.822386 235.551899 61.752463 236.485443 61.752463 237.418987 61.722001 238.352532 61.722001 239.286076 61.722001 240.219620 61.722001 241.153165 61.722001 242.086709 61.650001 243.020253 61.504617 243.953797 61.504617 244.887342 61.504617 245.820886 61.504617 246.754430 61.504617 247.687975 61.461694 248.621519 61.461694 249.555063 61.461694 250.488608 61.395924 251.422152 61.365463 252.355696 61.365463 253.289241 61.335001 254.222785 61.274078 255.156329 61.253309 256.089873 56.612773 257.023418 56.587850 257.956962 56.587850 258.890506 56.587850 259.824051 56.587850 260.757595 56.587850 261.691139 56.557389 262.624684 56.496466 263.558228 56.496466 264.491772 56.496466 265.425316 56.496466 266.358861 56.496466 267.292405 56.496466 268.225949 56.496466 269.159494 56.496466 270.093038 56.496466 271.026582 56.403004 271.960127 56.403004 272.893671 56.372543 273.827215 56.372543 274.760759 56.372543 275.694304 56.301235 276.627848 56.301235 277.561392 56.301235 278.494937 56.226466 279.428481 56.226466 280.362025 56.226466 281.295570 56.226466 282.229114 56.137850 283.162658 56.137850 284.096203 56.137850 285.029747 56.137850 285.963291 55.930850 286.896835 55.930850 287.830380 55.897620 288.763924 55.897620 289.697468 55.897620 290.631013 55.897620 291.564557 55.897620 292.498101 55.897620 293.431646 55.839466 294.365190 55.839466 295.298734 55.839466 296.232278 55.839466 297.165823 55.778543 298.099367 55.745312 299.032911 55.745312 299.966456 55.745312 300.900000 55.717620 300.900000 74.609312 299.966456 74.637004 299.032911 74.637004 298.099367 74.637004 297.165823 74.670235 296.232278 74.731158 295.298734 74.731158 294.365190 74.731158 293.431646 74.731158 292.498101 74.789312 291.564557 74.789312 290.631013 74.789312 289.697468 74.789312 288.763924 74.789312 287.830380 74.789312 286.896835 74.789312 285.963291 74.789312 285.029747 74.954773 284.096203 74.954773 283.162658 74.954773 282.229114 74.954773 281.295570 75.043389 280.362025 75.043389 279.428481 75.043389 278.494937 75.043389 277.561392 75.076620 276.627848 75.076620 275.694304 75.076620 274.760759 75.147927 273.827215 75.147927 272.893671 75.147927 271.960127 75.178389 271.026582 75.178389 270.093038 75.271850 269.159494 75.271850 268.225949 75.271850 267.292405 75.271850 266.358861 75.271850 265.425316 75.271850 264.491772 75.271850 263.558228 75.271850 262.624684 75.271850 261.691139 75.332773 260.757595 75.363235 259.824051 75.363235 258.890506 75.363235 257.956962 75.363235 257.023418 75.363235 256.089873 75.388158 255.156329 79.139771 254.222785 79.160540 253.289241 79.221463 252.355696 79.251924 251.422152 79.251924 250.488608 79.282386 249.555063 79.348155 248.621519 79.348155 247.687975 79.348155 246.754430 79.391078 245.820886 79.391078 244.887342 79.391078 243.953797 79.391078 243.020253 79.391078 242.086709 79.500463 241.153165 79.506001 240.219620 79.506001 239.286076 79.506001 238.352532 79.506001 237.418987 79.506001 236.485443 79.536463 235.551899 79.536463 234.618354 79.606386 233.684810 79.606386 232.751266 79.893001 231.817722 79.923463 230.884177 79.923463 229.950633 80.073001 229.017089 80.709232 228.083544 80.709232 227.150000 85.212001 226.216456 85.212001 225.282911 85.212001 224.349367 85.212001 223.415823 85.212001 222.482278 85.212001 221.548734 85.212001 220.615190 85.212001 219.681646 85.212001 218.748101 85.212001 217.814557 85.212001 216.881013 85.214771 215.947468 85.214771 215.013924 85.275694 214.080380 85.275694 213.146835 85.279848 212.213291 85.279848 211.279747 85.310309 210.346203 85.310309 209.412658 85.371232 208.479114 85.432155 207.545570 89.573540 206.612025 89.573540 205.678481 89.604001 204.744937 89.642078 203.811392 89.677386 202.877848 89.677386 201.944304 89.677386 201.010759 89.677386 200.077215 89.677386 199.143671 89.677386 198.210127 89.677386 197.276582 89.677386 196.343038 89.710617 195.409494 89.710617 194.475949 89.710617 193.542405 89.766001 192.608861 89.818617 191.675316 89.843540 190.741772 89.904463 189.808228 89.988232 188.874684 89.988232 187.941139 90.103848 187.007595 90.272771 186.074051 90.272771 185.140506 96.769386 184.206962 96.794309 183.273418 96.794309 182.339873 96.799848 181.406329 96.726463 180.472785 96.797771 179.539241 96.828232 178.605696 96.828232 177.672152 96.828232 176.738608 96.828232 175.805063 96.889155 174.871519 96.889155 173.937975 96.896771 173.004430 96.815771 172.070886 96.705694 171.137342 96.624694 170.203797 96.864232 169.270253 96.909924 168.336709 96.940386 167.403165 96.940386 166.469620 96.940386 165.536076 96.940386 164.602532 97.580771 163.668987 98.643463 162.735443 98.643463 161.801899 98.643463 160.868354 98.748694 159.934810 99.617540 159.001266 102.772386 158.067722 102.866540 157.134177 102.866540 156.200633 102.866540 155.267089 102.866540 154.333544 102.866540 153.400000 102.866540 152.466456 102.866540 151.532911 102.866540 150.599367 102.866540 149.665823 102.866540 148.732278 102.907386 147.798734 103.341463 146.865190 103.341463 145.931646 103.341463 144.998101 103.371924 144.064557 103.389232 143.131013 103.392001 142.197468 103.422463 141.263924 103.422463 140.330380 103.422463 139.396835 103.452924 138.463291 103.452924 137.529747 103.452924 136.596203 103.544309 135.662658 103.544309 134.729114 103.544309 133.795570 103.544309 132.862025 103.544309 131.928481 103.544309 130.994937 103.544309 130.061392 103.553309 129.127848 103.553309 128.194304 103.553309 127.260759 103.553309 126.327215 103.553309 125.393671 103.553309 124.460127 103.583771 123.526582 103.614232 122.593038 103.769309 121.659494 103.769309 120.725949 103.769309 119.792405 103.769309 118.858861 103.769309 117.925316 103.769309 116.991772 103.769309 116.058228 103.769309 115.124684 103.866232 114.191139 103.873848 113.257595 103.873848 112.324051 103.873848 111.390506 103.873848 110.456962 103.873848 109.523418 103.873848 108.589873 103.873848 107.656329 103.873848 106.722785 103.873848 105.789241 103.873848 104.855696 103.873848 103.922152 103.873848 102.988608 105.172615 102.055063 105.172615 101.121519 105.209308 100.187975 105.209308 99.254430 105.209308 98.320886 105.209308 97.387342 105.209308 96.453797 105.209308 95.520253 105.300692 94.586709 106.339154 93.653165 106.339154 92.719620 108.619615 91.786076 108.650077 90.852532 108.650077 89.918987 108.650077 88.985443 108.650077 88.051899 108.650077 87.118354 108.650077 86.184810 108.680538 85.251266 108.711000 84.317722 108.711000 83.384177 109.548000 82.450633 109.548000 81.517089 109.584692 80.583544 109.683000 79.650000 109.774385 78.716456 109.774385 77.782911 109.774385 76.849367 109.774385 75.915823 109.804846 74.982278 109.840846 74.048734 109.880308 73.115190 109.977923 72.181646 115.000615 71.248101 115.000615 70.314557 115.011000 69.381013 115.011000 68.447468 115.011000 67.513924 115.044231 66.580380 115.044231 65.646835 115.044231 64.713291 115.044231 63.779747 115.044231 62.846203 115.044231 61.912658 115.044231 60.979114 115.044231 60.045570 115.044231 59.112025 115.320462 58.178481 115.320462 57.244937 115.350923 56.311392 115.414615 55.377848 115.445077 54.444304 115.475538 53.510759 115.561385 52.577215 116.536846 51.643671 116.658692 50.710127 116.658692 49.776582 117.616154 48.843038 121.441846 47.909494 124.800923 46.975949 124.800923 46.042405 125.027308 45.108861 125.027308 44.175316 125.059846 43.241772 125.059846 42.308228 125.093077 41.374684 125.093077 40.441139 125.154000 39.507595 125.154000 38.574051 125.457231 37.640506 125.518154 36.706962 125.543077 35.773418 125.616462 34.839873 125.715462 33.906329 125.715462 32.972785 125.721000 32.039241 125.745923 31.105696 125.779154 30.172152 126.182077 29.238608 127.216385 28.305063 129.494077 27.371519 129.598615 26.437975 137.887615 25.504430 137.951308 24.570886 138.034385 23.637342 138.095308 22.703797 138.163846 21.770253 138.194308 20.836709 138.288462 19.903165 138.357000 18.969620 138.357000 18.036076 138.357000 17.102532 138.357000 16.168987 138.422769 15.235443 138.552923 14.301899 138.649846 13.368354 138.740538 12.434810 139.107462 11.501266 139.143462 10.567722 139.204385 9.634177 139.280538 8.700633 139.595538 7.767089 140.029615 6.833544 140.694231 5.900000 141.012000"/>
      </g>
      <g class="series serie-4 color-4">
        <path class="line reactive" d="M5.900000 141.012000 L6.833544 140.569615 7.767089 139.676538 8.700633 139.209231 9.634177 138.825000 10.567722 138.715615 11.501266 138.654692 12.434810 138.480231 13.368354 137.897308 14.301899 137.711077 15.235443 137.614154 16.168987 137.448000 17.102532 137.382231 18.036076 137.382231 18.969620 137.382231 19.903165 137.382231 20.836709 137.313692 21.770253 137.219538 22.703797 137.189077 23.637342 137.025000 24.570886 136.964077 25.504430 136.881000 26.437975 136.817308 27.371519 125.206615 28.305063 125.102077 29.238608 121.856538 30.172152 120.395769 31.105696 119.926385 32.039241 119.851615 32.972785 119.826692 33.906329 119.787923 34.839873 119.787923 35.773418 119.652923 36.706962 119.579538 37.640506 119.554615 38.574051 119.493692 39.507595 119.124000 40.441139 119.124000 41.374684 119.063077 42.308228 119.063077 43.241772 119.029846 44.175316 119.029846 45.108861 118.997308 46.042405 118.997308 46.975949 118.770923 47.909494 118.770923 48.843038 114.405231 49.776582 109.219846 50.710127 107.946692 51.643671 107.946692 52.577215 107.824846 53.510759 106.442308 54.444304 106.294154 55.377848 106.263692 56.311392 106.233231 57.244937 106.169538 58.178481 106.139077 59.112025 106.139077 60.045570 105.829615 60.979114 105.829615 61.912658 105.829615 62.846203 105.829615 63.779747 105.829615 64.713291 105.829615 65.646835 105.829615 66.580380 105.829615 67.513924 105.829615 68.447468 105.796385 69.381013 105.796385 70.314557 105.796385 71.248101 105.719538 72.181646 105.719538 73.115190 98.876077 74.048734 98.778462 74.982278 98.739000 75.915823 98.703000 76.849367 98.672538 77.782911 98.672538 78.716456 98.672538 79.650000 98.672538 80.583544 98.581154 81.517089 98.482846 82.450633 98.446154 83.384177 98.446154 84.317722 97.498385 85.251266 97.498385 86.184810 97.467923 87.118354 97.437462 88.051899 97.437462 88.985443 97.437462 89.918987 97.437462 90.852532 97.437462 91.786076 97.437462 92.719620 97.407000 93.653165 94.140692 94.586709 94.140692 95.520253 92.799000 96.453797 92.707615 97.387342 92.674385 98.320886 92.674385 99.254430 92.674385 100.187975 92.674385 101.121519 92.674385 102.055063 92.637692 102.988608 92.637692 103.922152 91.134001 104.855696 91.134001 105.789241 91.134001 106.722785 91.134001 107.656329 91.134001 108.589873 91.134001 109.523418 91.134001 110.456962 91.134001 111.390506 91.134001 112.324051 91.134001 113.257595 91.134001 114.191139 91.134001 115.124684 91.126386 116.058228 91.029463 116.991772 91.029463 117.925316 91.029463 118.858861 91.029463 119.792405 91.029463 120.725949 91.029463 121.659494 91.029463 122.593038 91.029463 123.526582 90.874386 124.460127 90.843924 125.393671 90.813463 126.327215 90.813463 127.260759 90.813463 128.194304 90.813463 129.127848 90.771924 130.061392 90.771924 130.994937 90.726924 131.928481 90.726924 132.862025 90.726924 133.795570 90.726924 134.729114 90.726924 135.662658 90.726924 136.596203 90.726924 137.529747 90.635540 138.463291 90.635540 139.396835 90.635540 140.330380 90.605078 141.263924 90.605078 142.197468 90.605078 143.131013 90.574617 144.064557 90.538617 144.998101 90.521309 145.931646 90.490848 146.865190 90.490848 147.798734 90.490848 148.732278 90.020771 149.665823 89.979924 150.599367 89.979924 151.532911 89.979924 152.466456 89.979924 153.400000 89.979924 154.333544 89.979924 155.267089 89.979924 156.200633 89.979924 157.134177 89.979924 158.067722 89.979924 159.001266 89.885771 159.934810 85.556771 160.868354 84.492694 161.801899 84.387463 162.735443 84.387463 163.668987 84.387463 164.602532 83.029848 165.536076 82.140232 166.469620 82.140232 167.403165 82.140232 168.336709 82.140232 169.270253 82.109771 170.203797 82.030848 171.137342 81.614078 172.070886 81.695078 173.004430 81.838386 173.937975 81.952617 174.871519 81.945001 175.805063 81.945001 176.738608 81.884078 177.672152 81.884078 178.605696 81.884078 179.539241 81.884078 180.472785 81.853617 181.406329 81.782309 182.339873 81.855694 183.273418 81.850155 184.206962 81.850155 185.140506 81.825232 186.074051 73.707232 187.007595 73.707232 187.941139 73.538309 188.874684 73.383924 189.808228 73.383924 190.741772 73.300155 191.675316 73.239232 192.608861 73.214309 193.542405 73.095232 194.475949 72.970617 195.409494 72.970617 196.343038 72.970617 197.276582 72.937386 198.210127 72.937386 199.143671 72.937386 200.077215 72.937386 201.010759 72.937386 201.944304 72.901386 202.877848 72.901386 203.811392 72.901386 204.744937 72.866078 205.678481 72.828001 206.612025 72.797540 207.545570 72.756001 208.479114 67.371232 209.412658 67.310309 210.346203 67.249386 211.279747 67.249386 212.213291 67.218924 213.146835 67.218924 214.080380 67.181540 215.013924 67.181540 215.947468 67.120617 216.881013 67.120617 217.814557 67.084617 218.748101 67.084617 219.681646 67.084617 220.615190 67.084617 221.548734 67.084617 222.482278 67.084617 223.415823 67.084617 224.349367 67.084617 225.282911 67.084617 226.216456 67.051386 227.150000 67.051386 228.083544 61.479694 229.017089 61.479694 229.950633 60.706386 230.884177 60.556848 231.817722 60.556848 232.751266 60.526386 233.684810 60.077771 234.618354 60.077771 235.551899 60.007848 236.485443 60.007848 237.418987 59.977386 238.352532 59.977386 239.286076 59.977386 240.219620 59.977386 241.153165 59.977386 242.086709 59.905386 243.020253 59.760001 243.953797 59.760001 244.887342 59.760001 245.820886 59.760001 246.754430 59.760001 247.687975 59.717078 248.621519 59.717078 249.555063 59.717078 250.488608 59.651309 251.422152 59.620848 252.355696 59.620848 253.289241 59.590386 254.222785 59.529463 255.156329 59.508694 256.089873 54.805850 257.023418 54.780927 257.956962 54.780927 258.890506 54.780927 259.824051 54.780927 260.757595 54.780927 261.691139 54.750466 262.624684 54.689543 263.558228 54.689543 264.491772 54.689543 265.425316 54.689543 266.358861 54.689543 267.292405 54.689543 268.225949 54.689543 269.159494 54.689543 270.093038 54.689543 271.026582 54.596081 271.960127 54.596081 272.893671 54.565620 273.827215 54.565620 274.760759 54.565620 275.694304 54.494312 276.627848 54.494312 277.561392 54.494312 278.494937 54.419543 279.428481 54.419543 280.362025 54.419543 281.295570 54.419543 282.229114 54.330927 283.162658 54.330927 284.096203 54.330927 285.029747 54.330927 285.963291 54.123927 286.896835 54.123927 287.830380 54.090696 288.763924 54.090696 289.697468 54.090696 290.631013 54.090696 291.564557 54.090696 292.498101 54.090696 293.431646 54.032543 294.365190 54.032543 295.298734 54.032543 296.232278 54.032543 297.165823 53.971620 298.099367 53.938389 299.032911 53.938389 299.966456 53.938389 300.900000 53.910696 300.900000 55.717620 299.966456 55.745312 299.032911 55.745312 298.099367 55.745312 297.165823 55.778543 296.232278 55.839466 295.298734 55.839466 294.365190 55.839466 293.431646 55.839466 292.498101 55.897620 291.564557 55.897620 290.631013 55.897620 289.697468 55.897620 288.763924 55.897620 287.830380 55.897620 286.896835 55.930850 285.963291 55.930850 285.029747 56.137850 284.096203 56.137850 283.162658 56.137850 282.229114 56.137850 281.295570 56.226466 280.362025 56.226466 279.428481 56.226466 278.494937 56.226466 277.561392 56.301235 276.627848 56.301235 275.694304 56.301235 274.760759 56.372543 273.827215 56.372543 272.893671 56.372543 271.960127 56.403004 271.026582 56.403004 270.093038 56.496466 269.159494 56.496466 268.225949 56.496466 267.292405 56.496466 266.358861 56.496466 265.425316 56.496466 264.491772 56.496466 263.558228 56.496466 262.624684 56.496466 261.691139 56.557389 260.757595 56.587850 259.824051 56.587850 258.890506 56.587850 257.956962 56.587850 257.023418 56.587850 256.089873 56.612773 255.156329 61.253309 254.222785 61.274078 253.289241 61.335001 252.355696 61.365463 251.422152 61.365463 250.488608 61.395924 249.555063 61.461694 248.621519 61.461694 247.687975 61.461694 246.754430 61.504617 245.820886 61.504617 244.887342 61.504617 243.953797 61.504617 243.020253 61.504617 242.086709 61.650001 241.153165 61.722001 240.219620 61.722001 239.286076 61.722001 238.352532 61.722001 237.418987 61.722001 236.485443 61.752463 235.551899 61.752463 234.618354 61.822386 233.684810 61.822386 232.751266 62.208694 231.817722 62.239155 230.884177 62.239155 229.950633 62.388694 229.017089 63.099694 228.083544 63.099694 227.150000 68.671386 226.216456 68.671386 225.282911 68.704617 224.349367 68.704617 223.415823 68.704617 222.482278 68.704617 221.548734 68.704617 220.615190 68.704617 219.681646 68.704617 218.748101 68.704617 217.814557 68.704617 216.881013 68.740617 215.947468 68.740617 215.013924 68.801540 214.080380 68.801540 213.146835 68.838924 212.213291 68.838924 211.279747 68.869386 210.346203 68.869386 209.412658 68.930309 208.479114 68.991232 207.545570 74.126771 206.612025 74.168309 205.678481 74.198771 204.744937 74.236848 203.811392 74.272155 202.877848 74.272155 201.944304 74.272155 201.010759 74.308155 200.077215 74.308155 199.143671 74.308155 198.210127 74.308155 197.276582 74.308155 196.343038 74.341386 195.409494 74.341386 194.475949 74.341386 193.542405 74.466001 192.608861 74.585078 191.675316 74.610001 190.741772 74.670924 189.808228 74.754694 188.874684 74.754694 187.941139 74.909078 187.007595 75.078001 186.074051 75.078001 185.140506 83.133694 184.206962 83.158617 183.273418 83.158617 182.339873 83.164155 181.406329 83.090771 180.472785 83.162078 179.539241 83.192540 178.605696 83.192540 177.672152 83.192540 176.738608 83.192540 175.805063 83.253463 174.871519 83.253463 173.937975 83.261078 173.004430 83.146848 172.070886 83.003540 171.137342 82.922540 170.203797 83.339309 169.270253 83.418232 168.336709 83.448694 167.403165 83.448694 166.469620 83.448694 165.536076 83.448694 164.602532 84.338309 163.668987 85.633617 162.735443 85.633617 161.801899 85.633617 160.868354 85.738848 159.934810 86.740617 159.001266 90.903463 158.067722 90.997617 157.134177 90.997617 156.200633 90.997617 155.267089 90.997617 154.333544 90.997617 153.400000 90.997617 152.466456 90.997617 151.532911 90.997617 150.599367 90.997617 149.665823 90.997617 148.732278 91.038463 147.798734 91.508540 146.865190 91.508540 145.931646 91.508540 144.998101 91.539001 144.064557 91.556309 143.131013 91.592309 142.197468 91.622771 141.263924 91.622771 140.330380 91.622771 139.396835 91.653232 138.463291 91.653232 137.529747 91.653232 136.596203 91.744617 135.662658 91.744617 134.729114 91.744617 133.795570 91.744617 132.862025 91.744617 131.928481 91.744617 130.994937 91.744617 130.061392 91.789617 129.127848 91.789617 128.194304 91.831155 127.260759 91.831155 126.327215 91.831155 125.393671 91.831155 124.460127 91.861617 123.526582 91.892078 122.593038 92.047155 121.659494 92.047155 120.725949 92.047155 119.792405 92.047155 118.858861 92.047155 117.925316 92.047155 116.991772 92.047155 116.058228 92.047155 115.124684 92.144078 114.191139 92.151694 113.257595 92.151694 112.324051 92.151694 111.390506 92.151694 110.456962 92.151694 109.523418 92.151694 108.589873 92.151694 107.656329 92.151694 106.722785 92.151694 105.789241 92.151694 104.855696 92.151694 103.922152 92.151694 102.988608 93.655385 102.055063 93.655385 101.121519 93.692077 100.187975 93.692077 99.254430 93.692077 98.320886 93.692077 97.387342 93.692077 96.453797 93.725308 95.520253 93.816692 94.586709 95.096077 93.653165 95.096077 92.719620 98.362385 91.786076 98.392846 90.852532 98.392846 89.918987 98.392846 88.985443 98.392846 88.051899 98.392846 87.118354 98.392846 86.184810 98.423308 85.251266 98.453769 84.317722 98.453769 83.384177 99.401538 82.450633 99.401538 81.517089 99.438231 80.583544 99.536538 79.650000 99.627923 78.716456 99.627923 77.782911 99.627923 76.849367 99.627923 75.915823 99.658385 74.982278 99.694385 74.048734 99.733846 73.115190 99.831462 72.181646 106.612615 71.248101 106.612615 70.314557 106.689462 69.381013 106.689462 68.447468 106.689462 67.513924 106.722692 66.580380 106.722692 65.646835 106.722692 64.713291 106.722692 63.779747 106.722692 62.846203 106.722692 61.912658 106.722692 60.979114 106.722692 60.045570 106.722692 59.112025 107.032154 58.178481 107.032154 57.244937 107.062615 56.311392 107.126308 55.377848 107.156769 54.444304 107.187231 53.510759 107.273077 52.577215 108.531000 51.643671 108.652846 50.710127 108.652846 49.776582 109.926000 48.843038 114.986769 47.909494 119.290154 46.975949 119.290154 46.042405 119.516538 45.108861 119.516538 44.175316 119.549077 43.241772 119.549077 42.308228 119.582308 41.374684 119.582308 40.441139 119.643231 39.507595 119.643231 38.574051 120.012923 37.640506 120.073846 36.706962 120.098769 35.773418 120.172154 34.839873 120.307154 33.906329 120.307154 32.972785 120.345923 32.039241 120.370846 31.105696 120.445615 30.172152 120.915000 29.238608 122.375769 28.305063 125.434385 27.371519 125.538923 26.437975 137.087308 25.504430 137.151000 24.570886 137.234077 23.637342 137.295000 22.703797 137.396769 21.770253 137.427231 20.836709 137.521385 19.903165 137.589923 18.969620 137.589923 18.036076 137.589923 17.102532 137.589923 16.168987 137.655692 15.235443 137.821846 14.301899 137.918769 13.368354 138.042692 12.434810 138.625615 11.501266 138.800077 10.567722 138.861000 9.634177 138.970385 8.700633 139.354615 7.767089 139.821923 6.833544 140.652692 5.900000 141.012000"/>
      </g>
    </g>
    <g class="titles"/>
    <g class="plot overlay" transform="translate(73, 20)">
      <g class="series serie-0 color-0"/>
      <g class="series serie-1 color-1"/>
      <g class="series serie-2 color-2"/>
      <g class="series serie-3 color-3"/>
      <g class="series serie-4 color-4"/>
    </g>
    <g class="plot text-overlay" transform="translate(73, 20)">
      <g class="series serie-0 color-0"/>
      <g class="series serie-1 color-1"/>
      <g class="series serie-2 color-2"/>
      <g class="series serie-3 color-3"/>
      <g class="series serie-4 color-4"/>
    </g>
    <g class="plot tooltip-overlay" transform="translate(73, 20)">
      <g class="tooltip" style="opacity: 0" transform="translate(0 0)">
        <a>
          <rect class="tooltip-box" height="0" rx="0" ry="0" width="0"/>
          <text class="text">
            <tspan class="label"/>
            <tspan class="value"/>
          </text>
        </a>
      </g>
    </g>
    <g class="legends" transform="translate(83, 174)">
      <g class="legend reactive activate-serie" id="activate-serie-0">
        <rect class="color-0 reactive" height="12" width="12" x="0.0" y="1.0"/>
        <text x="17.0" y="11.2">Merch</text>
      </g>
      <g class="legend reactive activate-serie" id="activate-serie-1">
        <rect class="color-1 reactive" height="12" width="12" x="102.266666667" y="1.0"/>
        <text x="119.266666667" y="11.2">Low Budget</text>
      </g>
      <g class="legend reactive activate-serie" id="activate-serie-2">
        <rect class="color-2 reactive" height="12" width="12" x="204.533333333" y="1.0"/>
        <text x="221.533333333" y="11.2">Standard</text>
      </g>
      <g class="legend reactive activate-serie" id="activate-serie-3">
        <rect class="color-3 reactive" height="12" width="12" x="0.0" y="22.0"/>
        <text x="17.0" y="32.2">Supporter</text>
      </g>
      <g class="legend reactive activate-serie" id="activate-serie-4">
        <rect class="color-4 reactive" height="12" width="12" x="102.266666667" y="22.0"/>
        <text x="119.266666667" y="32.2">Business</text>
      </g>
    </g>
  </g>
</svg>
