<?xml version="1.0"?>
<svg xmlns:xlink="http://www.w3.org/1999/xlink" xmlns="http://www.w3.org/2000/svg" class="pygal-chart" id="chart-58378380-4af8-440c-8c73-a74b3405e5bd" viewBox="0 0 400 250">
  <!--Generated with pygal 1.7.0 (etree) ©Kozea 2011-2014 on 2015-07-12-->
  <!--http://pygal.org-->
  <!--http://github.com/Kozea/pygal-->
  <defs>
    <style type="text/css">#chart-58378380-4af8-440c-8c73-a74b3405e5bd .title{font-family:"monospace";font-size:16px}#chart-58378380-4af8-440c-8c73-a74b3405e5bd .legends .legend text{font-family:"monospace";font-size:14px}#chart-58378380-4af8-440c-8c73-a74b3405e5bd .axis text{font-family:"monospace";font-size:8px}#chart-58378380-4af8-440c-8c73-a74b3405e5bd .axis text.major{font-family:"monospace";font-size:10px}#chart-58378380-4af8-440c-8c73-a74b3405e5bd .series text{font-family:"monospace";font-size:8px}#chart-58378380-4af8-440c-8c73-a74b3405e5bd .tooltip text{font-family:"monospace";font-size:16px}#chart-58378380-4af8-440c-8c73-a74b3405e5bd text.no_data{font-size:64px}
#chart-58378380-4af8-440c-8c73-a74b3405e5bd{background-color:white}#chart-58378380-4af8-440c-8c73-a74b3405e5bd path,#chart-58378380-4af8-440c-8c73-a74b3405e5bd line,#chart-58378380-4af8-440c-8c73-a74b3405e5bd rect,#chart-58378380-4af8-440c-8c73-a74b3405e5bd circle{-webkit-transition:250ms;-moz-transition:250ms;transition:250ms}#chart-58378380-4af8-440c-8c73-a74b3405e5bd .graph &gt; .background{fill:white}#chart-58378380-4af8-440c-8c73-a74b3405e5bd .plot &gt; .background{fill:rgba(0,0,255,0.1)}#chart-58378380-4af8-440c-8c73-a74b3405e5bd .graph{fill:rgba(0,0,0,0.7)}#chart-58378380-4af8-440c-8c73-a74b3405e5bd text.no_data{fill:rgba(0,0,0,0.9)}#chart-58378380-4af8-440c-8c73-a74b3405e5bd .title{fill:rgba(0,0,0,0.9)}#chart-58378380-4af8-440c-8c73-a74b3405e5bd .legends .legend text{fill:rgba(0,0,0,0.7)}#chart-58378380-4af8-440c-8c73-a74b3405e5bd .legends .legend:hover text{fill:rgba(0,0,0,0.9)}#chart-58378380-4af8-440c-8c73-a74b3405e5bd .axis .line{stroke:rgba(0,0,0,0.9)}#chart-58378380-4af8-440c-8c73-a74b3405e5bd .axis .guide.line{stroke:rgba(0,0,0,0.5)}#chart-58378380-4af8-440c-8c73-a74b3405e5bd .axis .major.line{stroke:rgba(0,0,0,0.7)}#chart-58378380-4af8-440c-8c73-a74b3405e5bd .axis text.major{stroke:rgba(0,0,0,0.9);fill:rgba(0,0,0,0.9)}#chart-58378380-4af8-440c-8c73-a74b3405e5bd .axis.y .guides:hover .guide.line,#chart-58378380-4af8-440c-8c73-a74b3405e5bd .line-graph .axis.x .guides:hover .guide.line,#chart-58378380-4af8-440c-8c73-a74b3405e5bd .stackedline-graph .axis.x .guides:hover .guide.line,#chart-58378380-4af8-440c-8c73-a74b3405e5bd .xy-graph .axis.x .guides:hover .guide.line{stroke:rgba(0,0,0,0.9)}#chart-58378380-4af8-440c-8c73-a74b3405e5bd .axis .guides:hover text{fill:rgba(0,0,0,0.9)}#chart-58378380-4af8-440c-8c73-a74b3405e5bd .reactive{fill-opacity:.8}#chart-58378380-4af8-440c-8c73-a74b3405e5bd .reactive.active,#chart-58378380-4af8-440c-8c73-a74b3405e5bd .active .reactive{fill-opacity:.9}#chart-58378380-4af8-440c-8c73-a74b3405e5bd .series{stroke-width:1.0;stroke-linejoin:round;stroke-linecap:round;stroke-dasharray:0,0}#chart-58378380-4af8-440c-8c73-a74b3405e5bd .series text{fill:rgba(0,0,0,0.9)}#chart-58378380-4af8-440c-8c73-a74b3405e5bd .tooltip rect{fill:rgba(0,0,255,0.1);stroke:rgba(0,0,0,0.9)}#chart-58378380-4af8-440c-8c73-a74b3405e5bd .tooltip text{fill:rgba(0,0,0,0.9)}#chart-58378380-4af8-440c-8c73-a74b3405e5bd .map-element{fill:rgba(0,0,0,0.7);stroke:rgba(0,0,0,0.5) !important;opacity:.9;stroke-width:3;-webkit-transition:250ms;-moz-transition:250ms;-o-transition:250ms;transition:250ms}#chart-58378380-4af8-440c-8c73-a74b3405e5bd .map-element:hover{opacity:1;stroke-width:10}#chart-58378380-4af8-440c-8c73-a74b3405e5bd .color-0,#chart-58378380-4af8-440c-8c73-a74b3405e5bd .color-0 a:visited{stroke:#242424;fill:#242424}#chart-58378380-4af8-440c-8c73-a74b3405e5bd .color-1,#chart-58378380-4af8-440c-8c73-a74b3405e5bd .color-1 a:visited{stroke:#9f6767;fill:#9f6767}#chart-58378380-4af8-440c-8c73-a74b3405e5bd .color-2,#chart-58378380-4af8-440c-8c73-a74b3405e5bd .color-2 a:visited{stroke:#92ac68;fill:#92ac68}#chart-58378380-4af8-440c-8c73-a74b3405e5bd .color-3,#chart-58378380-4af8-440c-8c73-a74b3405e5bd .color-3 a:visited{stroke:#d0d293;fill:#d0d293}#chart-58378380-4af8-440c-8c73-a74b3405e5bd .color-4,#chart-58378380-4af8-440c-8c73-a74b3405e5bd .color-4 a:visited{stroke:#9aacc3;fill:#9aacc3}#chart-58378380-4af8-440c-8c73-a74b3405e5bd .color-5,#chart-58378380-4af8-440c-8c73-a74b3405e5bd .color-5 a:visited{stroke:#bb77a4;fill:#bb77a4}#chart-58378380-4af8-440c-8c73-a74b3405e5bd .color-6,#chart-58378380-4af8-440c-8c73-a74b3405e5bd .color-6 a:visited{stroke:#77bbb5;fill:#77bbb5}#chart-58378380-4af8-440c-8c73-a74b3405e5bd .color-7,#chart-58378380-4af8-440c-8c73-a74b3405e5bd .color-7 a:visited{stroke:#777777;fill:#777777}#chart-58378380-4af8-440c-8c73-a74b3405e5bd .color-8,#chart-58378380-4af8-440c-8c73-a74b3405e5bd .color-8 a:visited{stroke:#242424;fill:#242424}#chart-58378380-4af8-440c-8c73-a74b3405e5bd .color-9,#chart-58378380-4af8-440c-8c73-a74b3405e5bd .color-9 a:visited{stroke:#9f6767;fill:#9f6767}#chart-58378380-4af8-440c-8c73-a74b3405e5bd .color-10,#chart-58378380-4af8-440c-8c73-a74b3405e5bd .color-10 a:visited{stroke:#92ac68;fill:#92ac68}#chart-58378380-4af8-440c-8c73-a74b3405e5bd .color-11,#chart-58378380-4af8-440c-8c73-a74b3405e5bd .color-11 a:visited{stroke:#d0d293;fill:#d0d293}#chart-58378380-4af8-440c-8c73-a74b3405e5bd .color-12,#chart-58378380-4af8-440c-8c73-a74b3405e5bd .color-12 a:visited{stroke:#9aacc3;fill:#9aacc3}#chart-58378380-4af8-440c-8c73-a74b3405e5bd .color-13,#chart-58378380-4af8-440c-8c73-a74b3405e5bd .color-13 a:visited{stroke:#bb77a4;fill:#bb77a4}#chart-58378380-4af8-440c-8c73-a74b3405e5bd .color-14,#chart-58378380-4af8-440c-8c73-a74b3405e5bd .color-14 a:visited{stroke:#77bbb5;fill:#77bbb5}#chart-58378380-4af8-440c-8c73-a74b3405e5bd .color-15,#chart-58378380-4af8-440c-8c73-a74b3405e5bd .color-15 a:visited{stroke:#777777;fill:#777777}
#chart-58378380-4af8-440c-8c73-a74b3405e5bd text.no_data{text-anchor:middle}#chart-58378380-4af8-440c-8c73-a74b3405e5bd .guide.line{fill-opacity:0}#chart-58378380-4af8-440c-8c73-a74b3405e5bd .centered{text-anchor:middle}#chart-58378380-4af8-440c-8c73-a74b3405e5bd .title{text-anchor:middle}#chart-58378380-4af8-440c-8c73-a74b3405e5bd .legends .legend text{fill-opacity:1}#chart-58378380-4af8-440c-8c73-a74b3405e5bd .axis.x text{text-anchor:middle}#chart-58378380-4af8-440c-8c73-a74b3405e5bd .axis.x:not(.web) text[transform]{text-anchor:start}#chart-58378380-4af8-440c-8c73-a74b3405e5bd .axis.y text{text-anchor:end}#chart-58378380-4af8-440c-8c73-a74b3405e5bd .axis.y2 text{text-anchor:start}#chart-58378380-4af8-440c-8c73-a74b3405e5bd .axis.y .logarithmic text:not(.major),#chart-58378380-4af8-440c-8c73-a74b3405e5bd .axis.y2 .logarithmic text:not(.major){font-size:50%}#chart-58378380-4af8-440c-8c73-a74b3405e5bd .axis .guide.line{stroke-dasharray:4,4}#chart-58378380-4af8-440c-8c73-a74b3405e5bd .axis .major.guide.line{stroke-dasharray:6,6}#chart-58378380-4af8-440c-8c73-a74b3405e5bd .axis text.major{stroke-width:0.5px}#chart-58378380-4af8-440c-8c73-a74b3405e5bd .horizontal .axis.y .guide.line,#chart-58378380-4af8-440c-8c73-a74b3405e5bd .horizontal .axis.y2 .guide.line,#chart-58378380-4af8-440c-8c73-a74b3405e5bd .vertical .axis.x .guide.line{opacity:0}#chart-58378380-4af8-440c-8c73-a74b3405e5bd .horizontal .axis.always_show .guide.line,#chart-58378380-4af8-440c-8c73-a74b3405e5bd .vertical .axis.always_show .guide.line{opacity:1 !important}#chart-58378380-4af8-440c-8c73-a74b3405e5bd .axis.y .guides:hover .guide.line,#chart-58378380-4af8-440c-8c73-a74b3405e5bd .axis.y2 .guides:hover .guide.line,#chart-58378380-4af8-440c-8c73-a74b3405e5bd .axis.x .guides:hover .guide.line{opacity:1}#chart-58378380-4af8-440c-8c73-a74b3405e5bd .axis .guides:hover text{opacity:1}#chart-58378380-4af8-440c-8c73-a74b3405e5bd .nofill{fill:none}#chart-58378380-4af8-440c-8c73-a74b3405e5bd .subtle-fill{fill-opacity:.2}#chart-58378380-4af8-440c-8c73-a74b3405e5bd .dot{stroke-width:1px;fill-opacity:1}#chart-58378380-4af8-440c-8c73-a74b3405e5bd .dot.active{stroke-width:5px}#chart-58378380-4af8-440c-8c73-a74b3405e5bd .series text{stroke:none}#chart-58378380-4af8-440c-8c73-a74b3405e5bd .series text.active{opacity:1}#chart-58378380-4af8-440c-8c73-a74b3405e5bd .tooltip rect{fill-opacity:0.8}#chart-58378380-4af8-440c-8c73-a74b3405e5bd .tooltip text{fill-opacity:1}#chart-58378380-4af8-440c-8c73-a74b3405e5bd .tooltip text tspan.label{fill-opacity:.8}</style>
    <script type="text/javascript">window.config = {"inner_radius": 0, "print_values": false, "tooltip_font_size": 16, "xrange": null, "legend_at_bottom_columns": null, "height": 250, "legend_at_bottom": true, "show_legend": true, "show_dots": false, "explicit_size": false, "legend_font_size": 14, "y_labels_major": null, "show_minor_x_labels": true, "major_label_font_size": 10, "fill": false, "half_pie": false, "x_value_formatter": null, "style": {"opacity": ".8", "foreground": "rgba(0, 0, 0, 0.7)", "plot_background": "rgba(0, 0, 255, 0.1)", "stroke_style": "round", "foreground_light": "rgba(0, 0, 0, 0.9)", "transition": "250ms", "foreground_dark": "rgba(0, 0, 0, 0.5)", "stroke_dasharray": "0,0", "opacity_hover": ".9", "stroke_width": 1.0, "colors": ["#242424", "#9f6767", "#92ac68", "#d0d293", "#9aacc3", "#bb77a4", "#77bbb5", "#777777"], "background": "white", "font_family": "monospace"}, "x_label_rotation": 0, "missing_value_fill_truncation": "x", "zero": 0, "margin_right": null, "interpolation_parameters": {}, "x_labels_major": null, "rounded_bars": null, "label_font_size": 8, "show_y_labels": true, "dots_size": 2, "show_y_guides": true, "show_minor_y_labels": true, "x_labels": [], "y_title": null, "value_font_size": 8, "order_min": null, "disable_xml_declaration": false, "strict": false, "css": ["style.css", "graph.css"], "mode": null, "show_only_major_dots": false, "y_label_rotation": 0, "human_readable": false, "show_x_guides": false, "spacing": 10, "x_labels_major_count": null, "pretty_print": false, "tooltip_border_radius": 0, "interpolate": null, "js": ["https://tickets.events.ccc.de/media/js/svg.jquery.js", "https://tickets.events.ccc.de/media/js/pygal-tooltips.js"], "y_labels": null, "y_labels_major_every": null, "x_label_format": "%Y-%m-%d %H:%M:%S.%f", "interpolation_precision": 250, "x_title": null, "value_formatter": null, "no_data_font_size": 64, "logarithmic": false, "width": 400, "print_zeroes": false, "no_data_text": "No data", "truncate_legend": null, "x_labels_major_every": null, "title": null, "legend_box_size": 12, "no_prefix": false, "stroke": true, "title_font_size": 16, "include_x_axis": false, "range": [170, 300], "truncate_label": null, "margin_top": null, "margin_left": null, "y_labels_major_count": null, "margin_bottom": null, "margin": 20, "stack_from_top": false, "show_x_labels": true}</script>
    <script type="text/javascript" xlink:href="https://tickets.events.ccc.de/media/js/svg.jquery.js"/>
    <script type="text/javascript" xlink:href="https://tickets.events.ccc.de/media/js/pygal-tooltips.js"/>
  </defs>
  <title>Pygal</title>
  <g class="graph line-graph vertical">
    <rect class="background" height="250" width="400" x="0" y="0"/>
    <g class="plot" transform="translate(54, 20)">
      <rect class="background" height="165.0" width="326.0" x="0" y="0"/>
      <g class="axis y">
        <path class="line" d="M0.000000 165.000000 h326.000000"/>
        <g class="guides">
          <path class="guide line" d="M0.000000 161.826923 h326.000000"/>
          <text class="" x="-5" y="164.626923077">170.0</text>
        </g>
        <g class="guides">
          <path class="guide line" d="M0.000000 149.622781 h326.000000"/>
          <text class="" x="-5" y="152.422781065">180.0</text>
        </g>
        <g class="guides">
          <path class="guide line" d="M0.000000 137.418639 h326.000000"/>
          <text class="" x="-5" y="140.218639053">190.0</text>
        </g>
        <g class="guides">
          <path class="major guide line" d="M0.000000 125.214497 h326.000000"/>
          <text class="major" x="-5" y="128.014497041">200.0</text>
        </g>
        <g class="guides">
          <path class="guide line" d="M0.000000 113.010355 h326.000000"/>
          <text class="" x="-5" y="115.81035503">210.0</text>
        </g>
        <g class="guides">
          <path class="guide line" d="M0.000000 100.806213 h326.000000"/>
          <text class="" x="-5" y="103.606213018">220.0</text>
        </g>
        <g class="guides">
          <path class="guide line" d="M0.000000 88.602071 h326.000000"/>
          <text class="" x="-5" y="91.4020710059">230.0</text>
        </g>
        <g class="guides">
          <path class="guide line" d="M0.000000 76.397929 h326.000000"/>
          <text class="" x="-5" y="79.1979289941">240.0</text>
        </g>
        <g class="guides">
          <path class="major guide line" d="M0.000000 64.193787 h326.000000"/>
          <text class="major" x="-5" y="66.9937869822">250.0</text>
        </g>
        <g class="guides">
          <path class="guide line" d="M0.000000 51.989645 h326.000000"/>
          <text class="" x="-5" y="54.7896449704">260.0</text>
        </g>
        <g class="guides">
          <path class="guide line" d="M0.000000 39.785503 h326.000000"/>
          <text class="" x="-5" y="42.5855029586">270.0</text>
        </g>
        <g class="guides">
          <path class="guide line" d="M0.000000 27.581361 h326.000000"/>
          <text class="" x="-5" y="30.3813609467">280.0</text>
        </g>
        <g class="guides">
          <path class="guide line" d="M0.000000 15.377219 h326.000000"/>
          <text class="" x="-5" y="18.1772189349">290.0</text>
        </g>
        <g class="guides">
          <path class="major guide line" d="M0.000000 3.173077 h326.000000"/>
          <text class="major" x="-5" y="5.97307692308">300.0</text>
        </g>
      </g>
      <g class="series serie-0 color-0">
        <path class="line reactive nofill" d="M6.269231 100.806213 L7.261198 77.682576 8.253165 85.890040 9.245131 91.246302 10.237098 92.161613 11.229065 92.181952 12.221032 92.405959 13.212999 91.132198 14.204966 89.722859 15.196933 88.246611 16.188900 88.602071 17.180867 88.712018 18.172833 88.926075 19.164800 88.926075 20.156767 88.926075 21.148734 88.926075 22.140701 89.132686 23.132668 89.429470 24.124635 89.525074 25.116602 87.411423 26.108569 88.016272 27.100536 89.078795 28.092502 89.259218 29.084469 92.343298 30.076436 92.396637 31.068403 91.466090 32.060370 91.816820 33.052337 92.108341 34.044304 91.981382 35.036271 92.072443 36.028238 92.047720 37.020204 92.047720 38.012171 92.026118 39.004138 92.053555 39.996105 92.143366 40.988072 92.170312 41.980039 92.315563 42.972006 92.315563 43.963973 92.341449 44.955940 92.341449 45.947907 92.354333 46.939873 92.354333 47.931840 92.404274 48.923807 92.404274 49.915774 92.492715 50.907741 92.492715 51.899708 93.161354 52.891675 93.117346 53.883642 93.528286 54.875609 93.528286 55.867575 93.557692 56.859542 93.215687 57.851509 93.020609 58.843476 93.028137 59.835443 93.035653 60.827410 93.050639 61.819377 93.058111 62.811344 93.058111 63.803311 94.536089 64.795278 94.536089 65.787244 94.536089 66.779211 94.536089 67.771178 94.536089 68.763145 94.536089 69.755112 94.536089 70.747079 94.536089 71.739046 94.536089 72.731013 94.542038 73.722980 94.542038 74.714946 94.542038 75.706913 94.507674 76.698880 94.507674 77.690847 95.004403 78.682814 95.037509 79.674781 95.042073 80.666748 95.046629 81.658715 95.051179 82.650682 95.051179 83.642648 95.051179 84.634615 95.051179 85.626582 95.064784 86.618549 95.155081 87.610516 95.159520 88.602483 95.159520 89.594450 95.478041 90.586417 95.478041 91.578384 95.482133 92.570351 95.486219 93.562317 95.486219 94.554284 95.486219 95.546251 95.486219 96.538218 95.486219 97.530185 95.486219 98.522152 95.490299 99.514119 96.625405 100.506086 96.625405 101.498053 96.636886 102.490019 96.645518 103.481986 96.631554 104.473953 96.631554 105.465920 96.631554 106.457887 96.631554 107.449854 96.631554 108.441821 96.634432 109.433788 96.634432 110.425755 97.172679 111.417722 97.172679 112.409688 97.172679 113.401655 97.172679 114.393622 97.172679 115.385589 97.172679 116.377556 97.172679 117.369523 97.172679 118.361490 97.172679 119.353457 97.172679 120.345424 97.172679 121.337390 97.172679 122.329357 97.172679 123.321324 97.179940 124.313291 97.179940 125.305258 97.179940 126.297225 97.179940 127.289192 97.179940 128.281159 97.179940 129.273126 97.179940 130.265093 97.179940 131.257059 97.224395 132.249026 97.226771 133.240993 97.229145 134.232960 97.229145 135.224927 97.229145 136.216894 97.229145 137.208861 97.166815 138.200828 97.166815 139.192795 97.136896 140.184761 97.136896 141.176728 97.136896 142.168695 97.136896 143.160662 97.136896 144.152629 97.136896 145.144596 97.136896 146.136563 97.144172 147.128530 97.144172 148.120497 97.144172 149.112463 97.146591 150.104430 97.146591 151.096397 97.146591 152.088364 97.149006 153.080331 97.135318 154.072298 97.274502 155.064265 97.276828 156.056232 97.276828 157.048199 97.276828 158.040166 97.542230 159.032132 97.544358 160.024099 97.544358 161.016066 97.544358 162.008033 97.544358 163.000000 97.544358 163.991967 97.544358 164.983934 97.544358 165.975901 97.544358 166.967868 97.544358 167.959834 97.544358 168.951801 97.550724 169.943768 98.210372 170.935735 98.323778 171.927702 98.328149 172.919669 98.328149 173.911636 98.328149 174.903603 98.520564 175.895570 98.942940 176.887537 98.942940 177.879503 98.942940 178.871470 98.942940 179.863437 98.943989 180.855404 98.932356 181.847371 98.917646 182.839338 98.915534 183.831305 98.856567 184.823272 98.866988 185.815239 98.866988 186.807205 98.866988 187.799172 98.869163 188.791139 98.869163 189.783106 98.869163 190.775073 98.869163 191.767040 98.870249 192.759007 98.872417 193.750974 99.173079 194.742941 99.324240 195.734907 99.324240 196.726874 99.352370 197.718841 100.830149 198.710808 100.830149 199.702775 100.830101 200.694742 100.794294 201.686709 100.794294 202.678676 100.865751 203.670643 100.865694 204.662610 100.889443 205.654576 100.913013 206.646543 100.900962 207.638510 100.900962 208.630477 100.900962 209.622444 100.900916 210.614411 100.900916 211.606378 101.031017 212.598345 101.031017 213.590312 101.031017 214.582278 101.007257 215.574245 101.007257 216.566212 101.007257 217.558179 101.007159 218.550146 101.007061 219.542113 101.006964 220.534080 100.959656 221.526047 100.998366 222.518014 100.998194 223.509981 100.998022 224.501947 101.118443 225.493914 101.118303 226.485881 101.118303 227.477848 101.211017 228.469815 101.211017 229.461782 101.210655 230.453749 101.210655 231.445716 101.199548 232.437683 101.199548 233.429649 101.199548 234.421616 101.199548 235.413583 101.199548 236.405550 101.199548 237.397517 101.199548 238.389484 101.199548 239.381451 101.199548 240.373418 101.188452 241.365385 101.188452 242.357352 101.969480 243.349318 101.969480 244.341285 102.197259 245.333252 102.204401 246.325219 102.204401 247.317186 102.203829 248.309153 102.171057 249.301120 102.171057 250.293087 102.169948 251.285054 102.169948 252.277020 102.169394 253.268987 102.169394 254.260954 102.169394 255.252921 102.169394 256.244888 102.169394 257.236855 102.148476 258.228822 102.146300 259.220789 102.146300 260.212756 102.146300 261.204722 102.146300 262.196689 102.146300 263.188656 102.229211 264.180623 102.229211 265.172590 102.445285 266.164557 102.443960 267.156524 102.443299 268.148491 102.443299 269.140458 102.442637 270.132425 102.441317 271.124391 102.582708 272.116358 102.991836 273.108325 103.009560 274.100292 103.009560 275.092259 103.009560 276.084226 103.009560 277.076193 103.009560 278.068160 103.017995 279.060127 103.016316 280.052093 103.016316 281.044060 103.016316 282.036027 103.016316 283.027994 103.016316 284.019961 103.016316 285.011928 103.016316 286.003895 103.016316 286.995862 103.016316 287.987829 103.032314 288.979796 103.032314 289.971762 103.031470 290.963729 103.031470 291.955696 103.031470 292.947663 103.029785 293.939630 103.029785 294.931597 103.029785 295.923564 102.991147 296.915531 102.991147 297.907498 102.991147 298.899464 102.991147 299.891431 102.997898 300.883398 102.997898 301.875365 102.997898 302.867332 102.997898 303.859299 103.038131 304.851266 103.038131 305.843233 103.028089 306.835200 103.028089 307.827167 103.028089 308.819133 103.028089 309.811100 103.028089 310.803067 103.028089 311.795034 103.035608 312.787001 103.035608 313.778968 103.035608 314.770935 103.035608 315.762902 103.033930 316.754869 103.033092 317.746835 103.033092 318.738802 103.033092 319.730769 103.041435"/>
      </g>
      <g class="series serie-1 color-1">
        <path class="line reactive nofill" d="M6.269231 111.789941 L7.261198 111.789941 8.253165 111.789941 9.245131 111.789941 10.237098 111.789941 11.229065 111.789941 12.221032 111.789941 13.212999 111.789941 14.204966 111.789941 15.196933 111.789941 16.188900 111.789941 17.180867 111.789941 18.172833 111.789941 19.164800 111.789941 20.156767 111.789941 21.148734 111.789941 22.140701 111.789941 23.132668 111.789941 24.124635 111.789941 25.116602 111.789941 26.108569 111.789941 27.100536 111.789941 28.092502 111.789941 29.084469 111.789941 30.076436 111.789941 31.068403 111.789941 32.060370 111.789941 33.052337 111.789941 34.044304 111.789941 35.036271 111.789941 36.028238 111.789941 37.020204 111.789941 38.012171 111.789941 39.004138 111.789941 39.996105 111.789941 40.988072 111.789941 41.980039 111.789941 42.972006 111.789941 43.963973 111.789941 44.955940 111.789941 45.947907 111.789941 46.939873 111.789941 47.931840 111.789941 48.923807 111.789941 49.915774 111.789941 50.907741 111.789941 51.899708 111.789941 52.891675 111.789941 53.883642 111.789941 54.875609 111.789941 55.867575 111.789941 56.859542 111.789941 57.851509 111.789941 58.843476 111.789941 59.835443 111.789941 60.827410 111.789941 61.819377 111.789941 62.811344 111.789941 63.803311 111.789941 64.795278 111.789941 65.787244 111.789941 66.779211 111.789941 67.771178 111.789941 68.763145 111.789941 69.755112 111.789941 70.747079 111.789941 71.739046 111.789941 72.731013 111.789941 73.722980 111.789941 74.714946 111.789941 75.706913 111.789941 76.698880 111.789941 77.690847 111.789941 78.682814 111.789941 79.674781 111.789941 80.666748 111.789941 81.658715 111.789941 82.650682 111.789941 83.642648 111.789941 84.634615 111.789941 85.626582 111.789941 86.618549 111.789941 87.610516 111.789941 88.602483 111.789941 89.594450 111.789941 90.586417 111.789941 91.578384 111.789941 92.570351 111.789941 93.562317 111.789941 94.554284 111.789941 95.546251 111.789941 96.538218 111.789941 97.530185 111.789941 98.522152 111.789941 99.514119 111.789941 100.506086 111.789941 101.498053 111.789941 102.490019 111.789941 103.481986 111.789941 104.473953 111.789941 105.465920 111.789941 106.457887 111.789941 107.449854 111.789941 108.441821 111.789941 109.433788 111.789941 110.425755 111.789941 111.417722 111.789941 112.409688 111.789941 113.401655 111.789941 114.393622 111.789941 115.385589 111.789941 116.377556 111.789941 117.369523 111.789941 118.361490 111.789941 119.353457 111.789941 120.345424 111.789941 121.337390 111.789941 122.329357 111.789941 123.321324 111.789941 124.313291 111.789941 125.305258 111.789941 126.297225 111.789941 127.289192 111.789941 128.281159 111.789941 129.273126 111.789941 130.265093 111.789941 131.257059 111.789941 132.249026 111.789941 133.240993 111.789941 134.232960 111.789941 135.224927 111.789941 136.216894 111.789941 137.208861 111.789941 138.200828 111.789941 139.192795 111.789941 140.184761 111.789941 141.176728 111.789941 142.168695 111.789941 143.160662 111.789941 144.152629 111.789941 145.144596 111.789941 146.136563 111.789941 147.128530 111.789941 148.120497 111.789941 149.112463 111.789941 150.104430 111.789941 151.096397 111.789941 152.088364 111.789941 153.080331 111.789941 154.072298 111.789941 155.064265 111.789941 156.056232 111.789941 157.048199 111.789941 158.040166 111.789941 159.032132 111.789941 160.024099 111.789941 161.016066 111.789941 162.008033 111.789941 163.000000 111.789941 163.991967 111.789941 164.983934 111.789941 165.975901 111.789941 166.967868 111.789941 167.959834 111.789941 168.951801 111.789941 169.943768 111.789941 170.935735 111.789941 171.927702 111.789941 172.919669 111.789941 173.911636 111.789941 174.903603 111.789941 175.895570 111.789941 176.887537 111.789941 177.879503 111.789941 178.871470 111.789941 179.863437 111.789941 180.855404 111.789941 181.847371 111.789941 182.839338 111.789941 183.831305 111.789941 184.823272 111.789941 185.815239 111.789941 186.807205 111.789941 187.799172 111.789941 188.791139 111.789941 189.783106 111.789941 190.775073 111.789941 191.767040 111.789941 192.759007 111.789941 193.750974 111.789941 194.742941 111.789941 195.734907 111.789941 196.726874 111.789941 197.718841 111.789941 198.710808 111.789941 199.702775 111.789941 200.694742 111.789941 201.686709 111.789941 202.678676 111.789941 203.670643 111.789941 204.662610 111.789941 205.654576 111.789941 206.646543 111.789941 207.638510 111.789941 208.630477 111.789941 209.622444 111.789941 210.614411 111.789941 211.606378 111.789941 212.598345 111.789941 213.590312 111.789941 214.582278 111.789941 215.574245 111.789941 216.566212 111.789941 217.558179 111.789941 218.550146 111.789941 219.542113 111.789941 220.534080 111.789941 221.526047 111.789941 222.518014 111.789941 223.509981 111.789941 224.501947 111.789941 225.493914 111.789941 226.485881 111.789941 227.477848 111.789941 228.469815 111.789941 229.461782 111.789941 230.453749 111.789941 231.445716 111.789941 232.437683 111.789941 233.429649 111.789941 234.421616 111.789941 235.413583 111.789941 236.405550 111.789941 237.397517 111.789941 238.389484 111.789941 239.381451 111.789941 240.373418 111.789941 241.365385 111.789941 242.357352 111.789941 243.349318 111.789941 244.341285 111.789941 245.333252 111.789941 246.325219 111.789941 247.317186 111.789941 248.309153 111.789941 249.301120 111.789941 250.293087 111.789941 251.285054 111.789941 252.277020 111.789941 253.268987 111.789941 254.260954 111.789941 255.252921 111.789941 256.244888 111.789941 257.236855 111.789941 258.228822 111.789941 259.220789 111.789941 260.212756 111.789941 261.204722 111.789941 262.196689 111.789941 263.188656 111.789941 264.180623 111.789941 265.172590 111.789941 266.164557 111.789941 267.156524 111.789941 268.148491 111.789941 269.140458 111.789941 270.132425 111.789941 271.124391 111.789941 272.116358 111.789941 273.108325 111.789941 274.100292 111.789941 275.092259 111.789941 276.084226 111.789941 277.076193 111.789941 278.068160 111.789941 279.060127 111.789941 280.052093 111.789941 281.044060 111.789941 282.036027 111.789941 283.027994 111.789941 284.019961 111.789941 285.011928 111.789941 286.003895 111.789941 286.995862 111.789941 287.987829 111.789941 288.979796 111.789941 289.971762 111.789941 290.963729 111.789941 291.955696 111.789941 292.947663 111.789941 293.939630 111.789941 294.931597 111.789941 295.923564 111.789941 296.915531 111.789941 297.907498 111.789941 298.899464 111.789941 299.891431 111.789941 300.883398 111.789941 301.875365 111.789941 302.867332 111.789941 303.859299 111.789941 304.851266 111.789941 305.843233 111.789941 306.835200 111.789941 307.827167 111.789941 308.819133 111.789941 309.811100 111.789941 310.803067 111.789941 311.795034 111.789941 312.787001 111.789941 313.778968 111.789941 314.770935 111.789941 315.762902 111.789941 316.754869 111.789941 317.746835 111.789941 318.738802 111.789941 319.730769 111.789941"/>
      </g>
    </g>
    <g class="titles"/>
    <g class="plot overlay" transform="translate(54, 20)">
      <g class="series serie-0 color-0"/>
      <g class="series serie-1 color-1"/>
    </g>
    <g class="plot text-overlay" transform="translate(54, 20)">
      <g class="series serie-0 color-0" style="display: none;"/>
      <g class="series serie-1 color-1" style="display: none;"/>
    </g>
    <g class="plot tooltip-overlay" transform="translate(54, 20)">
      <g class="tooltip" style="opacity: 0" transform="translate(0 0)">
        <a>
          <rect class="tooltip-box" height="0" rx="0" ry="0" width="0"/>
          <text class="text">
            <tspan class="label"/>
            <tspan class="value"/>
          </text>
        </a>
      </g>
    </g>
    <g class="legends" transform="translate(64, 195)">
      <g class="legend reactive activate-serie" id="activate-serie-0">
        <rect class="color-0 reactive" height="12" width="12" x="0.0" y="1.0"/>
        <text x="17.0" y="11.2">Average</text>
      </g>
      <g class="legend reactive activate-serie" id="activate-serie-1">
        <rect class="color-1 reactive" height="12" width="12" x="163.0" y="1.0"/>
        <text x="180.0" y="11.2">Required Average</text>
      </g>
    </g>
  </g>
</svg>
