<?xml version="1.0" encoding="utf-8"?>
<svg xmlns:xlink="http://www.w3.org/1999/xlink" xmlns="http://www.w3.org/2000/svg" class="pygal-chart" id="chart-607668d2-a44b-4034-b220-4e1548776799" viewBox="0 0 400 250">
  <!--Generated with pygal 1.7.0 (etree) ©Kozea 2011-2014 on 2015-07-02-->
  <!--http://pygal.org-->
  <!--http://github.com/Kozea/pygal-->
  <defs>
    <style type="text/css">#chart-607668d2-a44b-4034-b220-4e1548776799 .title{font-family:"monospace";font-size:16px}#chart-607668d2-a44b-4034-b220-4e1548776799 .legends .legend text{font-family:"monospace";font-size:14px}#chart-607668d2-a44b-4034-b220-4e1548776799 .axis text{font-family:"monospace";font-size:8px}#chart-607668d2-a44b-4034-b220-4e1548776799 .axis text.major{font-family:"monospace";font-size:8px}#chart-607668d2-a44b-4034-b220-4e1548776799 .series text{font-family:"monospace";font-size:8px}#chart-607668d2-a44b-4034-b220-4e1548776799 .tooltip text{font-family:"monospace";font-size:16px}#chart-607668d2-a44b-4034-b220-4e1548776799 text.no_data{font-size:64px}
#chart-607668d2-a44b-4034-b220-4e1548776799{background-color:white}#chart-607668d2-a44b-4034-b220-4e1548776799 path,#chart-607668d2-a44b-4034-b220-4e1548776799 line,#chart-607668d2-a44b-4034-b220-4e1548776799 rect,#chart-607668d2-a44b-4034-b220-4e1548776799 circle{-webkit-transition:250ms;-moz-transition:250ms;transition:250ms}#chart-607668d2-a44b-4034-b220-4e1548776799 .graph &gt; .background{fill:white}#chart-607668d2-a44b-4034-b220-4e1548776799 .plot &gt; .background{fill:rgba(0,0,255,0.1)}#chart-607668d2-a44b-4034-b220-4e1548776799 .graph{fill:rgba(0,0,0,0.7)}#chart-607668d2-a44b-4034-b220-4e1548776799 text.no_data{fill:rgba(0,0,0,0.9)}#chart-607668d2-a44b-4034-b220-4e1548776799 .title{fill:rgba(0,0,0,0.9)}#chart-607668d2-a44b-4034-b220-4e1548776799 .legends .legend text{fill:rgba(0,0,0,0.7)}#chart-607668d2-a44b-4034-b220-4e1548776799 .legends .legend:hover text{fill:rgba(0,0,0,0.9)}#chart-607668d2-a44b-4034-b220-4e1548776799 .axis .line{stroke:rgba(0,0,0,0.9)}#chart-607668d2-a44b-4034-b220-4e1548776799 .axis .guide.line{stroke:rgba(0,0,0,0.5)}#chart-607668d2-a44b-4034-b220-4e1548776799 .axis .major.line{stroke:rgba(0,0,0,0.7)}#chart-607668d2-a44b-4034-b220-4e1548776799 .axis text.major{stroke:rgba(0,0,0,0.9);fill:rgba(0,0,0,0.9)}#chart-607668d2-a44b-4034-b220-4e1548776799 .axis.y .guides:hover .guide.line,#chart-607668d2-a44b-4034-b220-4e1548776799 .line-graph .axis.x .guides:hover .guide.line,#chart-607668d2-a44b-4034-b220-4e1548776799 .stackedline-graph .axis.x .guides:hover .guide.line,#chart-607668d2-a44b-4034-b220-4e1548776799 .xy-graph .axis.x .guides:hover .guide.line{stroke:rgba(0,0,0,0.9)}#chart-607668d2-a44b-4034-b220-4e1548776799 .axis .guides:hover text{fill:rgba(0,0,0,0.9)}#chart-607668d2-a44b-4034-b220-4e1548776799 .reactive{fill-opacity:.8}#chart-607668d2-a44b-4034-b220-4e1548776799 .reactive.active,#chart-607668d2-a44b-4034-b220-4e1548776799 .active .reactive{fill-opacity:.9}#chart-607668d2-a44b-4034-b220-4e1548776799 .series{stroke-width:1.0;stroke-linejoin:round;stroke-linecap:round;stroke-dasharray:0,0}#chart-607668d2-a44b-4034-b220-4e1548776799 .series text{fill:rgba(0,0,0,0.9)}#chart-607668d2-a44b-4034-b220-4e1548776799 .tooltip rect{fill:rgba(0,0,255,0.1);stroke:rgba(0,0,0,0.9)}#chart-607668d2-a44b-4034-b220-4e1548776799 .tooltip text{fill:rgba(0,0,0,0.9)}#chart-607668d2-a44b-4034-b220-4e1548776799 .map-element{fill:rgba(0,0,0,0.7);stroke:rgba(0,0,0,0.5) !important;opacity:.9;stroke-width:3;-webkit-transition:250ms;-moz-transition:250ms;-o-transition:250ms;transition:250ms}#chart-607668d2-a44b-4034-b220-4e1548776799 .map-element:hover{opacity:1;stroke-width:10}#chart-607668d2-a44b-4034-b220-4e1548776799 .color-0,#chart-607668d2-a44b-4034-b220-4e1548776799 .color-0 a:visited{stroke:#242424;fill:#242424}#chart-607668d2-a44b-4034-b220-4e1548776799 .color-1,#chart-607668d2-a44b-4034-b220-4e1548776799 .color-1 a:visited{stroke:#9f6767;fill:#9f6767}#chart-607668d2-a44b-4034-b220-4e1548776799 .color-2,#chart-607668d2-a44b-4034-b220-4e1548776799 .color-2 a:visited{stroke:#92ac68;fill:#92ac68}#chart-607668d2-a44b-4034-b220-4e1548776799 .color-3,#chart-607668d2-a44b-4034-b220-4e1548776799 .color-3 a:visited{stroke:#d0d293;fill:#d0d293}#chart-607668d2-a44b-4034-b220-4e1548776799 .color-4,#chart-607668d2-a44b-4034-b220-4e1548776799 .color-4 a:visited{stroke:#9aacc3;fill:#9aacc3}#chart-607668d2-a44b-4034-b220-4e1548776799 .color-5,#chart-607668d2-a44b-4034-b220-4e1548776799 .color-5 a:visited{stroke:#bb77a4;fill:#bb77a4}#chart-607668d2-a44b-4034-b220-4e1548776799 .color-6,#chart-607668d2-a44b-4034-b220-4e1548776799 .color-6 a:visited{stroke:#77bbb5;fill:#77bbb5}#chart-607668d2-a44b-4034-b220-4e1548776799 .color-7,#chart-607668d2-a44b-4034-b220-4e1548776799 .color-7 a:visited{stroke:#777777;fill:#777777}#chart-607668d2-a44b-4034-b220-4e1548776799 .color-8,#chart-607668d2-a44b-4034-b220-4e1548776799 .color-8 a:visited{stroke:#242424;fill:#242424}#chart-607668d2-a44b-4034-b220-4e1548776799 .color-9,#chart-607668d2-a44b-4034-b220-4e1548776799 .color-9 a:visited{stroke:#9f6767;fill:#9f6767}#chart-607668d2-a44b-4034-b220-4e1548776799 .color-10,#chart-607668d2-a44b-4034-b220-4e1548776799 .color-10 a:visited{stroke:#92ac68;fill:#92ac68}#chart-607668d2-a44b-4034-b220-4e1548776799 .color-11,#chart-607668d2-a44b-4034-b220-4e1548776799 .color-11 a:visited{stroke:#d0d293;fill:#d0d293}#chart-607668d2-a44b-4034-b220-4e1548776799 .color-12,#chart-607668d2-a44b-4034-b220-4e1548776799 .color-12 a:visited{stroke:#9aacc3;fill:#9aacc3}#chart-607668d2-a44b-4034-b220-4e1548776799 .color-13,#chart-607668d2-a44b-4034-b220-4e1548776799 .color-13 a:visited{stroke:#bb77a4;fill:#bb77a4}#chart-607668d2-a44b-4034-b220-4e1548776799 .color-14,#chart-607668d2-a44b-4034-b220-4e1548776799 .color-14 a:visited{stroke:#77bbb5;fill:#77bbb5}#chart-607668d2-a44b-4034-b220-4e1548776799 .color-15,#chart-607668d2-a44b-4034-b220-4e1548776799 .color-15 a:visited{stroke:#777777;fill:#777777}
#chart-607668d2-a44b-4034-b220-4e1548776799 text.no_data{text-anchor:middle}#chart-607668d2-a44b-4034-b220-4e1548776799 .guide.line{fill-opacity:0}#chart-607668d2-a44b-4034-b220-4e1548776799 .centered{text-anchor:middle}#chart-607668d2-a44b-4034-b220-4e1548776799 .title{text-anchor:middle}#chart-607668d2-a44b-4034-b220-4e1548776799 .legends .legend text{fill-opacity:1}#chart-607668d2-a44b-4034-b220-4e1548776799 .axis.x text{text-anchor:middle}#chart-607668d2-a44b-4034-b220-4e1548776799 .axis.x:not(.web) text[transform]{text-anchor:start}#chart-607668d2-a44b-4034-b220-4e1548776799 .axis.y text{text-anchor:end}#chart-607668d2-a44b-4034-b220-4e1548776799 .axis.y2 text{text-anchor:start}#chart-607668d2-a44b-4034-b220-4e1548776799 .axis.y .logarithmic text:not(.major),#chart-607668d2-a44b-4034-b220-4e1548776799 .axis.y2 .logarithmic text:not(.major){font-size:50%}#chart-607668d2-a44b-4034-b220-4e1548776799 .axis .guide.line{stroke-dasharray:4,4}#chart-607668d2-a44b-4034-b220-4e1548776799 .axis .major.guide.line{stroke-dasharray:6,6}#chart-607668d2-a44b-4034-b220-4e1548776799 .axis text.major{stroke-width:0.5px}#chart-607668d2-a44b-4034-b220-4e1548776799 .horizontal .axis.y .guide.line,#chart-607668d2-a44b-4034-b220-4e1548776799 .horizontal .axis.y2 .guide.line,#chart-607668d2-a44b-4034-b220-4e1548776799 .vertical .axis.x .guide.line{opacity:0}#chart-607668d2-a44b-4034-b220-4e1548776799 .horizontal .axis.always_show .guide.line,#chart-607668d2-a44b-4034-b220-4e1548776799 .vertical .axis.always_show .guide.line{opacity:1 !important}#chart-607668d2-a44b-4034-b220-4e1548776799 .axis.y .guides:hover .guide.line,#chart-607668d2-a44b-4034-b220-4e1548776799 .axis.y2 .guides:hover .guide.line,#chart-607668d2-a44b-4034-b220-4e1548776799 .axis.x .guides:hover .guide.line{opacity:1}#chart-607668d2-a44b-4034-b220-4e1548776799 .axis .guides:hover text{opacity:1}#chart-607668d2-a44b-4034-b220-4e1548776799 .nofill{fill:none}#chart-607668d2-a44b-4034-b220-4e1548776799 .subtle-fill{fill-opacity:.2}#chart-607668d2-a44b-4034-b220-4e1548776799 .dot{stroke-width:1px;fill-opacity:1}#chart-607668d2-a44b-4034-b220-4e1548776799 .dot.active{stroke-width:5px}#chart-607668d2-a44b-4034-b220-4e1548776799 .series text{stroke:none}#chart-607668d2-a44b-4034-b220-4e1548776799 .series text.active{opacity:1}#chart-607668d2-a44b-4034-b220-4e1548776799 .tooltip rect{fill-opacity:0.8}#chart-607668d2-a44b-4034-b220-4e1548776799 .tooltip text{fill-opacity:1}#chart-607668d2-a44b-4034-b220-4e1548776799 .tooltip text tspan.label{fill-opacity:.8}</style>
    <script type="text/javascript">window.config = {"inner_radius": 0, "print_values": false, "tooltip_font_size": 16, "xrange": null, "legend_at_bottom_columns": null, "height": 250, "legend_at_bottom": true, "show_legend": true, "show_dots": false, "explicit_size": false, "legend_font_size": 14, "y_labels_major": null, "show_minor_x_labels": true, "major_label_font_size": 8, "fill": true, "half_pie": false, "x_value_formatter": null, "style": {"opacity": ".8", "foreground": "rgba(0, 0, 0, 0.7)", "plot_background": "rgba(0, 0, 255, 0.1)", "stroke_style": "round", "foreground_light": "rgba(0, 0, 0, 0.9)", "transition": "250ms", "foreground_dark": "rgba(0, 0, 0, 0.5)", "stroke_dasharray": "0,0", "opacity_hover": ".9", "stroke_width": 1.0, "colors": ["#242424", "#9f6767", "#92ac68", "#d0d293", "#9aacc3", "#bb77a4", "#77bbb5", "#777777"], "background": "white", "font_family": "monospace"}, "x_label_rotation": 0, "missing_value_fill_truncation": "x", "zero": 0, "margin_right": null, "interpolation_parameters": {}, "x_labels_major": null, "rounded_bars": null, "label_font_size": 8, "show_y_labels": true, "dots_size": 2.5, "show_y_guides": true, "show_minor_y_labels": true, "x_labels": [], "y_title": null, "value_font_size": 8, "order_min": null, "disable_xml_declaration": false, "strict": false, "css": ["style.css", "graph.css"], "mode": null, "show_only_major_dots": false, "y_label_rotation": 0, "human_readable": false, "show_x_guides": false, "spacing": 10, "x_labels_major_count": null, "pretty_print": false, "tooltip_border_radius": 0, "interpolate": null, "js": ["https://tickets.events.ccc.de/media/js/svg.jquery.js", "https://tickets.events.ccc.de/media/js/pygal-tooltips.js"], "y_labels": null, "y_labels_major_every": null, "x_label_format": "%Y-%m-%d %H:%M:%S.%f", "interpolation_precision": 250, "x_title": null, "value_formatter": null, "no_data_font_size": 64, "logarithmic": false, "width": 400, "print_zeroes": false, "no_data_text": "No data", "truncate_legend": null, "x_labels_major_every": null, "title": null, "legend_box_size": 12, "no_prefix": false, "stroke": true, "title_font_size": 16, "include_x_axis": false, "range": [0, 1000000], "truncate_label": null, "margin_top": null, "margin_left": null, "y_labels_major_count": null, "margin_bottom": null, "margin": 20, "stack_from_top": false, "show_x_labels": true}</script>
    <script type="text/javascript" xlink:href="https://tickets.events.ccc.de/media/js/svg.jquery.js"/>
    <script type="text/javascript" xlink:href="https://tickets.events.ccc.de/media/js/pygal-tooltips.js"/>
  </defs>
  <title>Pygal</title>
  <g class="graph stackedline-graph vertical">
    <rect class="background" height="250" width="400" x="0" y="0"/>
    <g class="plot" transform="translate(73, 20)">
      <rect class="background" height="144.0" width="306.8" x="0" y="0"/>
      <g class="axis y">
        <g class="guides">
          <path class="major line" d="M0.000000 141.230769 h306.800000"/>
          <text class="major" x="-5" y="144.030769231">0.0</text>
        </g>
        <g class="guides">
          <path class="guide line" d="M0.000000 127.384615 h306.800000"/>
          <text class="" x="-5" y="130.184615385">100000.0</text>
        </g>
        <g class="guides">
          <path class="guide line" d="M0.000000 113.538462 h306.800000"/>
          <text class="" x="-5" y="116.338461538">200000.0</text>
        </g>
        <g class="guides">
          <path class="guide line" d="M0.000000 99.692308 h306.800000"/>
          <text class="" x="-5" y="102.492307692">300000.0</text>
        </g>
        <g class="guides">
          <path class="guide line" d="M0.000000 85.846154 h306.800000"/>
          <text class="" x="-5" y="88.6461538462">400000.0</text>
        </g>
        <g class="guides">
          <path class="major guide line" d="M0.000000 72.000000 h306.800000"/>
          <text class="major" x="-5" y="74.8">500000.0</text>
        </g>
        <g class="guides">
          <path class="guide line" d="M0.000000 58.153846 h306.800000"/>
          <text class="" x="-5" y="60.9538461538">600000.0</text>
        </g>
        <g class="guides">
          <path class="guide line" d="M0.000000 44.307692 h306.800000"/>
          <text class="" x="-5" y="47.1076923077">700000.0</text>
        </g>
        <g class="guides">
          <path class="guide line" d="M0.000000 30.461538 h306.800000"/>
          <text class="" x="-5" y="33.2615384615">800000.0</text>
        </g>
        <g class="guides">
          <path class="guide line" d="M0.000000 16.615385 h306.800000"/>
          <text class="" x="-5" y="19.4153846154">900000.0</text>
        </g>
        <g class="guides">
          <path class="major guide line" d="M0.000000 2.769231 h306.800000"/>
          <text class="major" x="-5" y="5.56923076923">1000000.0</text>
        </g>
      </g>
      <g class="series serie-0 color-0">
        <path class="line reactive" d="M5.900000 141.230769 L5.900000 141.225231 10.114286 141.198231 14.328571 141.123462 18.542857 141.102000 22.757143 141.088846 26.971429 141.073615 31.185714 141.073615 35.400000 141.068077 39.614286 141.005769 43.828571 140.995385 48.042857 140.989846 52.257143 140.981538 56.471429 140.976692 60.685714 140.976692 64.900000 140.976692 69.114286 140.976692 73.328571 140.969077 77.542857 140.966308 81.757143 140.966308 85.971429 140.958692 90.185714 140.953154 94.400000 140.950385 98.614286 140.947615 102.828571 140.069077 107.042857 140.055923 111.257143 139.855154 115.471429 139.756846 119.685714 139.738846 123.900000 139.736077 128.114286 139.736077 132.328571 139.730538 136.542857 139.730538 140.757143 139.722923 144.971429 139.710462 149.185714 139.710462 153.400000 139.710462 157.614286 139.675846 161.828571 139.675846 166.042857 139.675846 170.257143 139.675846 174.471429 139.673077 178.685714 139.673077 182.900000 139.668231 187.114286 139.668231 191.328571 139.655077 195.542857 139.655077 199.757143 139.311692 203.971429 138.861692 208.185714 138.795923 212.400000 138.795923 216.614286 138.795923 220.828571 138.673385 225.042857 138.673385 229.257143 138.673385 233.471429 138.673385 237.685714 138.670615 241.900000 138.670615 246.114286 138.670615 250.328571 138.654692 254.542857 138.654692 258.757143 138.654692 262.971429 138.654692 267.185714 138.654692 271.400000 138.654692 275.614286 138.654692 279.828571 138.654692 284.042857 138.654692 288.257143 138.651923 292.471429 138.651923 296.685714 138.651923 300.900000 138.641538 300.900000 141.230769"/>
      </g>
      <g class="series serie-1 color-1">
        <path class="line reactive" d="M5.900000 141.225231 L10.114286 141.120692 14.328571 140.943462 18.542857 140.844462 22.757143 140.803615 26.971429 140.788385 31.185714 140.788385 35.400000 140.782846 39.614286 140.720538 43.828571 140.660308 48.042857 140.654769 52.257143 140.646462 56.471429 140.641615 60.685714 140.641615 64.900000 140.641615 69.114286 140.641615 73.328571 140.634000 77.542857 140.631231 81.757143 140.631231 85.971429 140.623615 90.185714 140.562692 94.400000 140.510077 98.614286 140.507308 102.828571 138.432462 107.042857 138.419308 111.257143 138.030231 115.471429 137.757462 119.685714 137.659154 123.900000 137.656385 128.114286 137.631462 132.328571 137.625923 136.542857 137.625923 140.757143 137.618308 144.971429 137.605846 149.185714 137.580923 153.400000 137.580923 157.614286 137.521385 161.828571 137.521385 166.042857 137.521385 170.257143 137.521385 174.471429 137.518615 178.685714 137.518615 182.900000 137.486077 187.114286 137.486077 191.328571 137.472923 195.542857 137.472923 199.757143 136.703077 203.971429 135.710308 208.185714 135.362077 212.400000 135.362077 216.614286 135.362077 220.828571 135.087231 225.042857 135.062308 229.257143 135.062308 233.471429 135.062308 237.685714 135.059538 241.900000 135.059538 246.114286 135.059538 250.328571 134.935615 254.542857 134.935615 258.757143 134.935615 262.971429 134.935615 267.185714 134.935615 271.400000 134.935615 275.614286 134.935615 279.828571 134.935615 284.042857 134.935615 288.257143 134.932846 292.471429 134.932846 296.685714 134.932846 300.900000 134.922462 300.900000 138.641538 296.685714 138.651923 292.471429 138.651923 288.257143 138.651923 284.042857 138.654692 279.828571 138.654692 275.614286 138.654692 271.400000 138.654692 267.185714 138.654692 262.971429 138.654692 258.757143 138.654692 254.542857 138.654692 250.328571 138.654692 246.114286 138.670615 241.900000 138.670615 237.685714 138.670615 233.471429 138.673385 229.257143 138.673385 225.042857 138.673385 220.828571 138.673385 216.614286 138.795923 212.400000 138.795923 208.185714 138.795923 203.971429 138.861692 199.757143 139.311692 195.542857 139.655077 191.328571 139.655077 187.114286 139.668231 182.900000 139.668231 178.685714 139.673077 174.471429 139.673077 170.257143 139.675846 166.042857 139.675846 161.828571 139.675846 157.614286 139.675846 153.400000 139.710462 149.185714 139.710462 144.971429 139.710462 140.757143 139.722923 136.542857 139.730538 132.328571 139.730538 128.114286 139.736077 123.900000 139.736077 119.685714 139.738846 115.471429 139.756846 111.257143 139.855154 107.042857 140.055923 102.828571 140.069077 98.614286 140.947615 94.400000 140.950385 90.185714 140.953154 85.971429 140.958692 81.757143 140.966308 77.542857 140.966308 73.328571 140.969077 69.114286 140.976692 64.900000 140.976692 60.685714 140.976692 56.471429 140.976692 52.257143 140.981538 48.042857 140.989846 43.828571 140.995385 39.614286 141.005769 35.400000 141.068077 31.185714 141.073615 26.971429 141.073615 22.757143 141.088846 18.542857 141.102000 14.328571 141.123462 10.114286 141.198231 5.900000 141.225231"/>
      </g>
      <g class="series serie-2 color-2">
        <path class="line reactive" d="M5.900000 141.012000 L10.114286 140.694231 14.328571 140.029615 18.542857 139.595538 22.757143 139.280538 26.971429 139.204385 31.185714 139.143462 35.400000 139.107462 39.614286 138.740538 43.828571 138.649846 48.042857 138.552923 52.257143 138.422769 56.471429 138.357000 60.685714 138.357000 64.900000 138.357000 69.114286 138.357000 73.328571 138.288462 77.542857 138.194308 81.757143 138.163846 85.971429 138.095308 90.185714 138.034385 94.400000 137.951308 98.614286 137.887615 102.828571 129.598615 107.042857 129.494077 111.257143 127.216385 115.471429 126.182077 119.685714 125.779154 123.900000 125.745923 128.114286 125.721000 132.328571 125.715462 136.542857 125.715462 140.757143 125.616462 144.971429 125.543077 149.185714 125.518154 153.400000 125.457231 157.614286 125.154000 161.828571 125.154000 166.042857 125.093077 170.257143 125.093077 174.471429 125.059846 178.685714 125.059846 182.900000 125.027308 187.114286 125.027308 191.328571 124.800923 195.542857 124.800923 199.757143 121.441846 203.971429 117.616154 208.185714 116.658692 212.400000 116.658692 216.614286 116.536846 220.828571 115.561385 225.042857 115.475538 229.257143 115.445077 233.471429 115.414615 237.685714 115.350923 241.900000 115.320462 246.114286 115.320462 250.328571 115.044231 254.542857 115.044231 258.757143 115.044231 262.971429 115.044231 267.185714 115.044231 271.400000 115.044231 275.614286 115.044231 279.828571 115.044231 284.042857 115.044231 288.257143 115.011000 292.471429 115.011000 296.685714 115.011000 300.900000 115.000615 300.900000 134.922462 296.685714 134.932846 292.471429 134.932846 288.257143 134.932846 284.042857 134.935615 279.828571 134.935615 275.614286 134.935615 271.400000 134.935615 267.185714 134.935615 262.971429 134.935615 258.757143 134.935615 254.542857 134.935615 250.328571 134.935615 246.114286 135.059538 241.900000 135.059538 237.685714 135.059538 233.471429 135.062308 229.257143 135.062308 225.042857 135.062308 220.828571 135.087231 216.614286 135.362077 212.400000 135.362077 208.185714 135.362077 203.971429 135.710308 199.757143 136.703077 195.542857 137.472923 191.328571 137.472923 187.114286 137.486077 182.900000 137.486077 178.685714 137.518615 174.471429 137.518615 170.257143 137.521385 166.042857 137.521385 161.828571 137.521385 157.614286 137.521385 153.400000 137.580923 149.185714 137.580923 144.971429 137.605846 140.757143 137.618308 136.542857 137.625923 132.328571 137.625923 128.114286 137.631462 123.900000 137.656385 119.685714 137.659154 115.471429 137.757462 111.257143 138.030231 107.042857 138.419308 102.828571 138.432462 98.614286 140.507308 94.400000 140.510077 90.185714 140.562692 85.971429 140.623615 81.757143 140.631231 77.542857 140.631231 73.328571 140.634000 69.114286 140.641615 64.900000 140.641615 60.685714 140.641615 56.471429 140.641615 52.257143 140.646462 48.042857 140.654769 43.828571 140.660308 39.614286 140.720538 35.400000 140.782846 31.185714 140.788385 26.971429 140.788385 22.757143 140.803615 18.542857 140.844462 14.328571 140.943462 10.114286 141.120692 5.900000 141.225231"/>
      </g>
      <g class="series serie-3 color-3">
        <path class="line reactive" d="M5.900000 141.012000 L10.114286 140.652692 14.328571 139.821923 18.542857 139.354615 22.757143 138.970385 26.971429 138.861000 31.185714 138.800077 35.400000 138.625615 39.614286 138.042692 43.828571 137.918769 48.042857 137.821846 52.257143 137.655692 56.471429 137.589923 60.685714 137.589923 64.900000 137.589923 69.114286 137.589923 73.328571 137.521385 77.542857 137.427231 81.757143 137.396769 85.971429 137.295000 90.185714 137.234077 94.400000 137.151000 98.614286 137.087308 102.828571 125.538923 107.042857 125.434385 111.257143 122.375769 115.471429 120.915000 119.685714 120.445615 123.900000 120.370846 128.114286 120.345923 132.328571 120.307154 136.542857 120.307154 140.757143 120.172154 144.971429 120.098769 149.185714 120.073846 153.400000 120.012923 157.614286 119.643231 161.828571 119.643231 166.042857 119.582308 170.257143 119.582308 174.471429 119.549077 178.685714 119.549077 182.900000 119.516538 187.114286 119.516538 191.328571 119.290154 195.542857 119.290154 199.757143 114.986769 203.971429 109.926000 208.185714 108.652846 212.400000 108.652846 216.614286 108.531000 220.828571 107.273077 225.042857 107.187231 229.257143 107.156769 233.471429 107.126308 237.685714 107.062615 241.900000 107.032154 246.114286 107.032154 250.328571 106.722692 254.542857 106.722692 258.757143 106.722692 262.971429 106.722692 267.185714 106.722692 271.400000 106.722692 275.614286 106.722692 279.828571 106.722692 284.042857 106.722692 288.257143 106.689462 292.471429 106.689462 296.685714 106.689462 300.900000 106.612615 300.900000 115.000615 296.685714 115.011000 292.471429 115.011000 288.257143 115.011000 284.042857 115.044231 279.828571 115.044231 275.614286 115.044231 271.400000 115.044231 267.185714 115.044231 262.971429 115.044231 258.757143 115.044231 254.542857 115.044231 250.328571 115.044231 246.114286 115.320462 241.900000 115.320462 237.685714 115.350923 233.471429 115.414615 229.257143 115.445077 225.042857 115.475538 220.828571 115.561385 216.614286 116.536846 212.400000 116.658692 208.185714 116.658692 203.971429 117.616154 199.757143 121.441846 195.542857 124.800923 191.328571 124.800923 187.114286 125.027308 182.900000 125.027308 178.685714 125.059846 174.471429 125.059846 170.257143 125.093077 166.042857 125.093077 161.828571 125.154000 157.614286 125.154000 153.400000 125.457231 149.185714 125.518154 144.971429 125.543077 140.757143 125.616462 136.542857 125.715462 132.328571 125.715462 128.114286 125.721000 123.900000 125.745923 119.685714 125.779154 115.471429 126.182077 111.257143 127.216385 107.042857 129.494077 102.828571 129.598615 98.614286 137.887615 94.400000 137.951308 90.185714 138.034385 85.971429 138.095308 81.757143 138.163846 77.542857 138.194308 73.328571 138.288462 69.114286 138.357000 64.900000 138.357000 60.685714 138.357000 56.471429 138.357000 52.257143 138.422769 48.042857 138.552923 43.828571 138.649846 39.614286 138.740538 35.400000 139.107462 31.185714 139.143462 26.971429 139.204385 22.757143 139.280538 18.542857 139.595538 14.328571 140.029615 10.114286 140.694231 5.900000 141.012000"/>
      </g>
      <g class="series serie-4 color-4">
        <path class="line reactive" d="M5.900000 141.012000 L10.114286 140.569615 14.328571 139.676538 18.542857 139.209231 22.757143 138.825000 26.971429 138.715615 31.185714 138.654692 35.400000 138.480231 39.614286 137.897308 43.828571 137.711077 48.042857 137.614154 52.257143 137.448000 56.471429 137.382231 60.685714 137.382231 64.900000 137.382231 69.114286 137.382231 73.328571 137.313692 77.542857 137.219538 81.757143 137.189077 85.971429 137.025000 90.185714 136.964077 94.400000 136.881000 98.614286 136.817308 102.828571 125.206615 107.042857 125.102077 111.257143 121.856538 115.471429 120.395769 119.685714 119.926385 123.900000 119.851615 128.114286 119.826692 132.328571 119.787923 136.542857 119.787923 140.757143 119.652923 144.971429 119.579538 149.185714 119.554615 153.400000 119.493692 157.614286 119.124000 161.828571 119.124000 166.042857 119.063077 170.257143 119.063077 174.471429 119.029846 178.685714 119.029846 182.900000 118.997308 187.114286 118.997308 191.328571 118.770923 195.542857 118.770923 199.757143 114.405231 203.971429 109.219846 208.185714 107.946692 212.400000 107.946692 216.614286 107.824846 220.828571 106.442308 225.042857 106.294154 229.257143 106.263692 233.471429 106.233231 237.685714 106.169538 241.900000 106.139077 246.114286 106.139077 250.328571 105.829615 254.542857 105.829615 258.757143 105.829615 262.971429 105.829615 267.185714 105.829615 271.400000 105.829615 275.614286 105.829615 279.828571 105.829615 284.042857 105.829615 288.257143 105.796385 292.471429 105.796385 296.685714 105.796385 300.900000 105.719538 300.900000 106.612615 296.685714 106.689462 292.471429 106.689462 288.257143 106.689462 284.042857 106.722692 279.828571 106.722692 275.614286 106.722692 271.400000 106.722692 267.185714 106.722692 262.971429 106.722692 258.757143 106.722692 254.542857 106.722692 250.328571 106.722692 246.114286 107.032154 241.900000 107.032154 237.685714 107.062615 233.471429 107.126308 229.257143 107.156769 225.042857 107.187231 220.828571 107.273077 216.614286 108.531000 212.400000 108.652846 208.185714 108.652846 203.971429 109.926000 199.757143 114.986769 195.542857 119.290154 191.328571 119.290154 187.114286 119.516538 182.900000 119.516538 178.685714 119.549077 174.471429 119.549077 170.257143 119.582308 166.042857 119.582308 161.828571 119.643231 157.614286 119.643231 153.400000 120.012923 149.185714 120.073846 144.971429 120.098769 140.757143 120.172154 136.542857 120.307154 132.328571 120.307154 128.114286 120.345923 123.900000 120.370846 119.685714 120.445615 115.471429 120.915000 111.257143 122.375769 107.042857 125.434385 102.828571 125.538923 98.614286 137.087308 94.400000 137.151000 90.185714 137.234077 85.971429 137.295000 81.757143 137.396769 77.542857 137.427231 73.328571 137.521385 69.114286 137.589923 64.900000 137.589923 60.685714 137.589923 56.471429 137.589923 52.257143 137.655692 48.042857 137.821846 43.828571 137.918769 39.614286 138.042692 35.400000 138.625615 31.185714 138.800077 26.971429 138.861000 22.757143 138.970385 18.542857 139.354615 14.328571 139.821923 10.114286 140.652692 5.900000 141.012000"/>
      </g>
    </g>
    <g class="titles"/>
    <g class="plot overlay" transform="translate(73, 20)">
      <g class="series serie-0 color-0"/>
      <g class="series serie-1 color-1"/>
      <g class="series serie-2 color-2"/>
      <g class="series serie-3 color-3"/>
      <g class="series serie-4 color-4"/>
    </g>
    <g class="plot text-overlay" transform="translate(73, 20)">
      <g class="series serie-0 color-0"/>
      <g class="series serie-1 color-1"/>
      <g class="series serie-2 color-2"/>
      <g class="series serie-3 color-3"/>
      <g class="series serie-4 color-4"/>
    </g>
    <g class="plot tooltip-overlay" transform="translate(73, 20)">
      <g class="tooltip" style="opacity: 0" transform="translate(0 0)">
        <a>
          <rect class="tooltip-box" height="0" rx="0" ry="0" width="0"/>
          <text class="text">
            <tspan class="label"/>
            <tspan class="value"/>
          </text>
        </a>
      </g>
    </g>
    <g class="legends" transform="translate(83, 174)">
      <g class="legend reactive activate-serie" id="activate-serie-0">
        <rect class="color-0 reactive" height="12" width="12" x="0.0" y="1.0"/>
        <text x="17.0" y="11.2">Merch</text>
      </g>
      <g class="legend reactive activate-serie" id="activate-serie-1">
        <rect class="color-1 reactive" height="12" width="12" x="102.266666667" y="1.0"/>
        <text x="119.266666667" y="11.2">Low Budget</text>
      </g>
      <g class="legend reactive activate-serie" id="activate-serie-2">
        <rect class="color-2 reactive" height="12" width="12" x="204.533333333" y="1.0"/>
        <text x="221.533333333" y="11.2">Standard</text>
      </g>
      <g class="legend reactive activate-serie" id="activate-serie-3">
        <rect class="color-3 reactive" height="12" width="12" x="0.0" y="22.0"/>
        <text x="17.0" y="32.2">Supporter</text>
      </g>
      <g class="legend reactive activate-serie" id="activate-serie-4">
        <rect class="color-4 reactive" height="12" width="12" x="102.266666667" y="22.0"/>
        <text x="119.266666667" y="32.2">Business</text>
      </g>
    </g>
  </g>
</svg>
